<svg width="305" height="33" viewBox="0 0 305 33" fill="none" xmlns="http://www.w3.org/2000/svg">
<path d="M206.492 9.41476L210.22 0.015686H218.253C218.718 0.015686 219.15 0.246575 219.41 0.634403C219.674 1.02634 219.725 1.52181 219.547 1.96058L217.382 7.27513C216.849 8.58323 215.599 9.42791 214.198 9.42791C214.198 9.42873 206.492 9.41476 206.492 9.41476ZM214.276 5.93253L215.391 3.51107H212.147L211.046 5.93253H214.276Z" fill="white"/>
<path d="M220.202 12.4163C219.877 12.4163 219.574 12.2552 219.39 11.9849C219.204 11.7121 219.166 11.3654 219.289 11.0581L222.156 3.83476C222.344 3.36148 222.793 3.05499 223.299 3.05499H232.558L229.145 11.5182C228.924 12.063 228.405 12.4154 227.822 12.4154H220.202V12.4163ZM226.945 8.94718L227.931 6.52572H224.676L223.704 8.94718H226.945Z" fill="white"/>
<path d="M270.377 12.4163C270.052 12.4163 269.749 12.2552 269.565 11.9849C269.379 11.7121 269.341 11.3654 269.464 11.0581L272.331 3.83476C272.52 3.36148 272.968 3.05499 273.474 3.05499H282.733L279.32 11.5182C279.1 12.063 278.58 12.4154 277.997 12.4154H270.377V12.4163ZM277.12 8.94718L278.106 6.52572H274.851L273.88 8.94718H277.12Z" fill="white"/>
<path d="M233.365 9.41305L236.747 0.882481C236.957 0.35497 237.456 0.0139771 238.019 0.0139771H247.211L246.12 2.6918H239.442L237.832 6.61938H240.947L241.42 5.64241H239.406L240.134 3.92594C240.215 3.73532 240.401 3.61289 240.606 3.61289L245.737 3.63096L243.574 8.94141C243.453 9.23804 243.17 9.42949 242.852 9.42949L233.365 9.41305Z" fill="white"/>
<path d="M245.571 12.4015L249 3.75586C249.181 3.29901 249.613 3.00403 250.101 3.00403L258.167 3.03032L257.076 5.70814L251.648 5.68103L251.243 6.67114H254.765L254.027 8.7475H250.381L249.897 9.77376H255.371L254.734 11.6899L254.73 11.6973C254.557 12.1336 254.143 12.4154 253.677 12.4154L245.571 12.4015Z" fill="white"/>
<path d="M262.706 0.0279541H266.097L263.751 5.94151H268.236L267.141 8.713C266.973 9.13944 266.569 9.41552 266.113 9.41552L258.98 9.41635L262.706 0.0279541Z" fill="white"/>
<path d="M283.462 9.42619L287.032 0.61543C287.183 0.241571 287.541 0 287.942 0H289.145C289.742 0 290.3 0.322094 290.602 0.841389L292.298 3.75503L293.822 0H297.265L293.775 8.77871C293.618 9.17394 293.243 9.42865 292.821 9.42865H291.556C291.031 9.42865 290.547 9.16243 290.264 8.71709L288.357 5.72786L286.872 9.44509L283.462 9.42619Z" fill="white"/>
<path d="M276.143 32.1634L279.713 23.3527C279.865 22.9788 280.222 22.7372 280.623 22.7372H281.827C282.423 22.7372 282.981 23.0593 283.284 23.5786L284.979 26.4923L286.504 22.7372H289.946L286.456 31.516C286.299 31.9112 285.924 32.1659 285.503 32.1659H284.238C283.712 32.1659 283.229 31.8997 282.945 31.4543L281.039 28.4651L279.553 32.1823L276.143 32.1634Z" fill="white"/>
<path d="M252.116 19.7916L245.76 19.7924C245.4 19.7924 245.076 20.0142 244.942 20.3528L243.931 22.9123H248.759L246.234 29.2761H249.217L251.744 22.9114H255.115C255.476 22.9114 255.8 22.6896 255.933 22.3511L256.944 19.7916H252.116Z" fill="white"/>
<path d="M262.112 22.674H259.529C259.165 22.674 258.838 22.8983 258.703 23.2393L255.238 32.2456H258.248L260.798 25.8226L262.112 22.674Z" fill="white"/>
<path d="M206.673 32.2579L208.198 27.8045L205.712 29.8299L204.485 27.4964L202.757 32.2579H199L202.416 22.7635H205.926L207.221 25.1489L210.136 22.7635H213.896L210.536 32.2579H206.673Z" fill="white"/>
<path d="M221.734 29.2966L222.514 27.1398H219.796L218.904 29.2966H215.271V29.009C215.271 28.945 215.271 28.8653 217.95 21.4127C218.001 21.241 218.494 19.8022 220.67 19.8022H228.987L225.672 29.2966H221.734ZM223.571 24.2861L224.15 22.6666H221.405L220.827 24.2861H223.571Z" fill="white"/>
<path d="M270.15 29.2966L270.93 27.1398H268.212L267.32 29.2966H263.687V29.009C263.687 28.945 263.687 28.8653 266.366 21.4127C266.417 21.241 266.91 19.8022 269.086 19.8022H277.403L274.088 29.2966H270.15ZM271.987 24.2861L272.566 22.6666H269.821L269.243 24.2861H271.987Z" fill="white"/>
<path d="M236.067 32.2579L234.405 28.9836H233.184L231.992 32.2579H228.086L231.559 22.826H239.851C240.009 22.826 240.78 22.8539 241.18 23.4044C241.436 23.7586 241.471 24.2286 241.284 24.8021C240.758 26.4118 240.473 27.3287 240.47 27.3378L240.466 27.3476L240.462 27.3575C240.438 27.4183 239.906 28.7313 238.358 28.9515L240.036 32.2571H236.067V32.2579ZM237.072 26.4323L237.346 25.6279H234.395L234.121 26.4323H237.072Z" fill="white"/>
<path d="M290.686 29.2966L291.753 26.5128H298.397L298.597 25.959H293.947C293.916 25.9582 293.179 25.9229 292.795 25.3444C292.51 24.9138 292.504 24.3255 292.78 23.5951L293.621 21.3223C293.674 21.1235 294.094 19.8343 296.122 19.8343H304.746L303.757 22.6041H297.099L296.897 23.0955H301.468L301.482 23.0971C301.518 23.1004 302.368 23.1925 302.748 23.789C302.958 24.1193 302.984 24.5211 302.822 24.9837L301.913 27.6779C301.742 28.2334 300.983 29.2983 299.351 29.2983H290.686V29.2966Z" fill="white"/>
<path d="M114.818 25.1704C114.747 25.175 114.678 25.199 114.62 25.2398C114.562 25.2805 114.516 25.3366 114.487 25.4017C114.438 25.5338 114.487 25.6082 114.603 25.7321C114.747 25.8383 114.92 25.8988 115.098 25.9056C115.264 25.9056 115.297 25.9056 115.388 25.8312C115.478 25.7569 115.495 25.4099 115.156 25.2365L114.9 25.1291H114.776L114.818 25.1704Z" fill="white"/>
<path d="M80.744 25.7486C80.6461 25.7545 80.5492 25.7711 80.4549 25.7981C80.3936 25.8283 80.3423 25.8755 80.3071 25.9341C80.2719 25.9927 80.2544 26.0602 80.2567 26.1285C80.2567 26.2359 80.2567 26.269 80.4384 26.335C80.5027 26.3678 80.5729 26.3874 80.6449 26.3929C80.7494 26.3847 80.8543 26.3847 80.9588 26.3929C81.2066 26.3929 81.2644 26.3929 81.3801 26.4672C81.4957 26.5415 81.7435 26.938 81.6857 26.9876L81.3635 27.095C81.0317 27.1782 80.72 27.3271 80.4466 27.5328C80.2378 27.7134 80.069 27.9357 79.951 28.1853C79.9572 28.1997 79.9603 28.2151 79.9603 28.2308C79.9603 28.2464 79.9572 28.2618 79.951 28.2762C79.8932 28.2762 79.9015 28.5901 79.951 28.7305C80.0914 28.9507 80.2844 29.1324 80.5127 29.2592C80.8297 29.341 81.1622 29.341 81.4792 29.2592C81.7067 29.1819 81.9212 29.0705 82.1152 28.9288C82.2226 28.8379 82.2804 28.9288 82.3382 29.16C82.369 29.3144 82.4189 29.4642 82.4869 29.6061C82.5613 29.763 82.6026 29.8126 82.71 29.8456C82.8044 29.8733 82.9047 29.874 82.9996 29.8478C83.0945 29.8215 83.1801 29.7693 83.2469 29.697C83.3212 29.6061 83.3212 29.5896 83.2469 29.3087C83.2231 29.17 83.1843 29.0343 83.1312 28.904C83.1312 28.8379 83.0569 28.6892 83.0238 28.5653C82.9346 28.2472 82.8242 27.9353 82.6934 27.6319C82.6435 27.4813 82.6075 27.3265 82.5861 27.1693C82.5783 26.9266 82.5119 26.6894 82.3926 26.4779C82.2732 26.2664 82.1043 26.087 81.9005 25.9551C81.7603 25.8591 81.5985 25.7995 81.4296 25.7816C81.2038 25.7321 80.9699 25.7321 80.744 25.7816V25.7486ZM81.727 27.7145C81.7766 27.7641 81.7766 27.8054 81.727 27.9953C81.7046 28.1247 81.6518 28.2469 81.5728 28.3518C81.4937 28.4567 81.3909 28.5412 81.2727 28.5983C81.0496 28.6975 80.9257 28.6975 80.8018 28.5983C80.6779 28.4992 80.7275 28.0862 81.1983 27.7723C81.4379 27.6402 81.6279 27.6071 81.7187 27.698L81.727 27.7145Z" fill="white"/>
<path d="M125.283 23.5927C125.11 23.6587 125.093 23.7 125.093 24.2948C125.093 24.6087 125.093 25.1208 125.135 25.3686C125.192 26.1038 125.209 26.6737 125.225 28.2267V29.5896L125.333 29.7052C125.409 29.7785 125.508 29.8224 125.614 29.8291C125.969 29.8704 126.142 29.697 126.084 29.3418C126.071 29.1962 126.071 29.0496 126.084 28.904C126.084 28.5488 126.084 27.4254 125.985 26.4259C125.985 26.3268 125.985 26.0542 125.927 25.8312C125.87 25.6082 125.878 25.0795 125.878 24.6665C125.886 24.3902 125.87 24.1137 125.828 23.8405C125.777 23.749 125.695 23.6779 125.598 23.6388C125.5 23.5998 125.392 23.5952 125.291 23.6257L125.283 23.5927Z" fill="white"/>
<path d="M64.3721 24.9473L64.2069 25.0546C64.1801 25.3735 64.1801 25.694 64.2069 26.0128C64.2565 26.8389 64.2648 27.6649 64.2069 29.5813C64.2069 29.7547 64.3308 29.8291 64.6282 29.8291C64.9256 29.8291 64.8925 29.8291 64.9834 29.7134C65.0743 29.5978 65.0743 29.5647 65.0743 29.3252C65.0774 29.0354 65.1542 28.7512 65.2973 28.4992C65.3328 28.4071 65.3862 28.3228 65.4542 28.2514C65.4874 28.2221 65.5129 28.1853 65.5286 28.144C65.5286 28.0861 65.7929 27.987 65.9333 27.987C66.0738 27.987 66.0903 27.987 66.1646 28.144C66.2617 28.429 66.3335 28.722 66.3794 29.0196C66.4036 29.4251 66.5104 29.8215 66.6933 30.1843C66.7543 30.2446 66.8336 30.283 66.9188 30.2934C67.004 30.3039 67.0903 30.2858 67.1641 30.2421C67.2081 30.2294 67.249 30.2075 67.2838 30.1778C67.3187 30.1481 67.3469 30.1113 67.3664 30.0699C67.386 30.0285 67.3965 29.9834 67.3972 29.9375C67.3979 29.8917 67.3888 29.8463 67.3706 29.8043C67.3706 29.7217 67.2963 29.4491 67.255 29.2013C67.065 28.1027 66.9989 27.8879 66.7924 27.6318C66.6581 27.4885 66.4825 27.3908 66.2899 27.3523C66.0974 27.3138 65.8976 27.3364 65.7186 27.4171C65.6175 27.4552 65.5121 27.4801 65.4047 27.4914C65.3469 27.4914 65.3056 27.4914 65.3056 27.5327C65.3056 27.574 65.0825 27.6649 65.0577 27.6401C65.033 27.6153 65.0577 27.2353 65.0577 26.7645C65.0577 26.2937 65.0577 25.8394 65.0577 25.765C65.0577 25.6907 65.0577 25.5007 65.0577 25.3437C65.0577 25.1868 65.0577 25.0381 64.9669 24.9638C64.886 24.9105 64.7912 24.8821 64.6943 24.8821C64.5974 24.8821 64.5026 24.9105 64.4217 24.9638L64.3721 24.9473Z" fill="white"/>
<path d="M93.5473 24.5839C93.4152 24.7078 93.4234 24.6913 93.5473 25.286C93.6185 25.8503 93.6378 26.4199 93.6051 26.9876C93.5143 28.1441 93.4895 28.458 93.4317 28.7636C93.3739 29.0692 93.3656 29.1601 93.5391 29.2922C93.6768 29.3641 93.8357 29.3844 93.9871 29.3496C94.1385 29.3148 94.2726 29.2271 94.3651 29.1023C94.3783 29.0257 94.3783 28.9475 94.3651 28.871C94.3651 28.5901 94.3651 28.3588 94.7451 27.8054C94.814 27.698 94.9005 27.6031 95.0011 27.5246C95.2159 27.3593 95.282 27.3841 95.4141 27.665C95.549 28.0074 95.6406 28.3654 95.6867 28.7306C95.7116 28.8797 95.7649 29.0227 95.8437 29.1518C95.9282 29.2697 96.0508 29.3546 96.1909 29.3923C96.3309 29.4299 96.4797 29.4179 96.6119 29.3583C96.7771 29.2592 96.7853 29.1518 96.6119 28.904C96.5527 28.788 96.5056 28.6662 96.4714 28.5406C96.2567 27.285 95.9428 26.7977 95.3315 26.7316H95.1085C94.8784 26.7486 94.6605 26.8416 94.489 26.9959C94.4064 27.1281 94.3899 26.9959 94.3899 26.3599C94.3934 26.0175 94.3741 25.6753 94.332 25.3356C94.3034 25.1855 94.2841 25.0338 94.2742 24.8813C94.2707 24.7841 94.2291 24.6921 94.1586 24.6252C94.0512 24.5013 94.0264 24.493 93.8364 24.493C93.6464 24.493 93.6134 24.493 93.5225 24.6087L93.5473 24.5839Z" fill="white"/>
<path d="M75.7382 25.4098C75.5482 25.4677 75.4821 25.6081 75.4491 26.0707C75.416 26.5332 75.3665 26.8967 75.1352 28.3753C75.0113 29.2013 75.003 29.3582 75.0856 29.4574C75.1682 29.5565 75.193 29.5482 75.3747 29.5482C75.4389 29.5604 75.5049 29.5578 75.5679 29.5406C75.6309 29.5235 75.6891 29.4922 75.7382 29.4491L75.8786 29.3417V29.0361C75.8786 28.8626 75.8786 28.7057 75.8786 28.6726C75.8786 28.6396 75.8786 28.4992 75.9199 28.3505C75.9612 28.2018 75.9777 27.9127 76.019 27.6979C76.0603 27.4832 76.1099 27.1362 76.1347 26.938C76.1427 26.8059 76.1677 26.6755 76.209 26.5498C76.4296 26.7866 76.6235 27.047 76.7872 27.3262C77.1245 27.9105 77.4013 28.5277 77.6133 29.1683C77.649 29.2475 77.7015 29.318 77.7671 29.375C77.8327 29.4321 77.9098 29.4742 77.9932 29.4987C78.2493 29.4987 78.5962 29.2509 78.5962 29.0774C78.6338 28.8491 78.6834 28.623 78.7449 28.4001C78.8951 27.8162 79.0055 27.2229 79.0753 26.6241C79.1249 26.1037 79.0753 25.9881 78.8523 25.7981C78.7366 25.7072 78.7119 25.7072 78.5136 25.7403C78.3154 25.7733 78.2906 25.7898 78.2328 25.9055C78.2102 25.9503 78.1985 25.9998 78.1985 26.05C78.1985 26.1002 78.2102 26.1497 78.2328 26.1946C78.2979 26.5023 78.2979 26.8202 78.2328 27.128L78.1584 27.5162C78.1584 27.7392 78.1006 27.7971 78.0593 27.7971C77.9489 27.6764 77.857 27.54 77.7867 27.3923C77.5301 26.9215 77.2373 26.4714 76.9111 26.0459C76.824 25.9612 76.7301 25.8839 76.6303 25.8146C76.5389 25.7507 76.4556 25.6758 76.3825 25.5916C76.3152 25.4908 76.2148 25.4167 76.0987 25.382C75.9826 25.3473 75.858 25.3542 75.7464 25.4016L75.7382 25.4098Z" fill="white"/>
<path d="M61.5306 25.4346C61.415 25.5007 61.3819 25.5089 60.8946 25.4346C60.0686 25.3768 60.0685 25.3768 59.8786 25.5172C59.6886 25.6576 59.7216 25.6576 59.7216 25.6824C59.7216 25.7072 59.8373 25.8393 59.9116 25.8393L60.3577 25.8972C60.5628 25.9305 60.7696 25.9525 60.9772 25.9633C61.3571 25.9633 61.3571 25.9633 61.4067 26.2937C61.4413 26.7942 61.4413 27.2965 61.4067 27.797C61.4067 27.8962 61.4067 28.1853 61.4067 28.4578C61.4067 29.5895 61.4893 29.8621 61.8775 29.8621C61.9264 29.8695 61.9764 29.8643 62.0226 29.847C62.0689 29.8296 62.11 29.8007 62.1419 29.763C62.2056 29.7121 62.2512 29.642 62.272 29.5632C62.2929 29.4843 62.2878 29.4009 62.2575 29.3252C62.2004 28.2246 62.2004 27.1217 62.2575 26.0211C62.4425 25.98 62.6342 25.98 62.8192 26.0211C62.8192 26.0872 63.1744 26.0624 63.3066 25.9715C63.4387 25.8807 63.5379 25.7237 63.5048 25.6246C63.4477 25.5645 63.3768 25.5191 63.2983 25.4924C63.1414 25.4263 63.0753 25.4181 62.6375 25.4429C62.1997 25.4676 62.1254 25.4429 62.018 25.4429C61.9439 25.4001 61.8598 25.3776 61.7743 25.3776C61.6887 25.3776 61.6047 25.4001 61.5306 25.4429V25.4346Z" fill="white"/>
<path d="M108.614 25.7073C108.301 25.8078 108.017 25.9837 107.788 26.2195C107.617 26.4428 107.476 26.6871 107.367 26.9464C107.203 27.2741 107.111 27.6334 107.098 27.9997C107.085 28.366 107.152 28.7308 107.292 29.0692C107.407 29.3329 107.601 29.555 107.846 29.7053C108.05 29.8424 108.279 29.9365 108.521 29.982C108.762 30.0274 109.01 30.0232 109.25 29.9696C109.476 29.9624 109.697 29.9044 109.897 29.8C110.097 29.6957 110.271 29.5475 110.407 29.3666C110.486 29.2607 110.533 29.1335 110.54 29.0012C110.547 28.8688 110.515 28.7373 110.448 28.6232C110.407 28.5033 110.343 28.3927 110.26 28.2977C110.176 28.2027 110.074 28.1252 109.96 28.0697C109.8 27.9382 109.598 27.868 109.39 27.8715C109.135 27.8511 108.878 27.8996 108.647 28.0119C108.589 28.032 108.536 28.0656 108.494 28.1099C108.451 28.1542 108.42 28.208 108.402 28.2669C108.384 28.3258 108.381 28.3881 108.392 28.4486C108.403 28.5091 108.428 28.5661 108.465 28.6149C108.54 28.7141 108.564 28.7223 108.746 28.6975C108.866 28.6935 108.981 28.6532 109.077 28.5819C109.106 28.5511 109.141 28.5267 109.18 28.51C109.219 28.4932 109.261 28.4846 109.304 28.4846C109.346 28.4846 109.388 28.4932 109.427 28.51C109.466 28.5267 109.502 28.5511 109.531 28.5819C109.578 28.6105 109.616 28.6524 109.639 28.7024C109.663 28.7523 109.671 28.8081 109.663 28.8627C109.68 28.9459 109.664 29.0326 109.617 29.1037C109.571 29.1749 109.498 29.2248 109.415 29.2427C109.289 29.3075 109.15 29.3457 109.008 29.3549C108.866 29.364 108.724 29.344 108.59 29.296C108.456 29.248 108.333 29.1731 108.229 29.0758C108.126 28.9786 108.043 28.8611 107.986 28.7306C107.87 28.3482 107.87 27.94 107.986 27.5576C108.028 27.4255 108.094 27.2272 108.127 27.1116C108.167 26.9042 108.278 26.7173 108.441 26.5829C108.713 26.3268 108.771 26.2938 108.928 26.269L109.201 26.2195C109.374 26.2195 109.82 26.4673 109.82 26.6077C109.82 26.7481 110.027 26.839 110.15 26.8638C110.227 26.875 110.304 26.8656 110.375 26.8365C110.447 26.8074 110.509 26.7598 110.555 26.6985C110.63 26.6159 110.63 26.6159 110.555 26.459C110.347 26.1561 110.062 25.9139 109.729 25.7569C109.536 25.665 109.322 25.6278 109.11 25.6495C108.95 25.6362 108.79 25.6362 108.631 25.6495L108.614 25.7073Z" fill="white"/>
<path d="M98.0657 25.7651L97.9665 25.856V26.5168V27.1859H97.8096C97.2727 27.1115 97.1983 27.1115 97.0579 27.2272C96.9175 27.3428 96.9175 27.3593 96.9175 27.475C96.9175 27.5906 96.9175 27.6154 97.0744 27.6815C97.2977 27.7827 97.5397 27.8362 97.7848 27.8384C97.8663 27.8395 97.9472 27.8535 98.0244 27.8797C98.1052 28.3493 98.1522 28.8241 98.1648 29.3005C98.1648 29.6474 98.1648 29.6557 98.3052 29.7631C98.4456 29.8704 98.4539 29.8787 98.5778 29.8539C98.6794 29.8386 98.7757 29.7989 98.8586 29.7383L98.9825 29.6392V29.2179C98.9825 28.9866 98.9825 28.6149 98.933 28.3919C98.9226 28.2406 98.9226 28.0888 98.933 27.9375C98.933 27.9375 99.0156 27.888 99.0982 27.8715C99.3212 27.8715 99.536 27.7145 99.5608 27.6071C99.5855 27.4998 99.5608 27.3098 99.3212 27.2519C99.2148 27.232 99.1055 27.232 98.9991 27.2519C98.9082 27.2519 98.8586 27.2519 98.8504 27.2519C98.8131 26.8952 98.7938 26.5368 98.7926 26.1781C98.8016 26.121 98.7965 26.0626 98.7778 26.0079C98.7591 25.9532 98.7273 25.9039 98.6852 25.8642C98.6064 25.7984 98.507 25.7623 98.4043 25.7623C98.3016 25.7623 98.2022 25.7984 98.1235 25.8642L98.0657 25.7651Z" fill="white"/>
<path d="M81.1404 27.6815C80.8017 27.8715 80.6035 28.0863 80.5787 28.3093C80.5711 28.3755 80.5799 28.4426 80.6044 28.5045C80.6289 28.5665 80.6683 28.6214 80.7191 28.6645C80.802 28.7408 80.908 28.7872 81.0203 28.7962C81.1326 28.8052 81.2447 28.7763 81.3387 28.7141C81.4751 28.6492 81.5937 28.5521 81.6843 28.4313C81.775 28.3104 81.8349 28.1693 81.8591 28.0202C81.9004 27.8302 81.9169 27.7228 81.8591 27.6237C81.7269 27.5246 81.5286 27.4585 81.1404 27.6815ZM80.9009 28.5076C80.8791 28.4896 80.8617 28.4668 80.8503 28.441C80.8388 28.4152 80.8335 28.3871 80.8348 28.3589C80.8348 28.235 81.0165 28.078 81.2726 27.9293C81.5286 27.7807 81.6112 27.8054 81.636 27.8302C81.6608 27.855 81.636 27.9954 81.636 27.9954C81.6158 28.1041 81.571 28.2066 81.5052 28.2954C81.4394 28.3841 81.3542 28.4567 81.2561 28.5076C81.0248 28.5736 80.9504 28.5489 80.9009 28.4828V28.5076Z" fill="white"/>
<path d="M111.885 26.649C111.821 26.6633 111.765 26.7018 111.728 26.7564C111.697 27.7738 111.736 28.7922 111.844 29.8044C111.89 29.8699 111.952 29.9225 112.025 29.9572C112.097 29.9919 112.177 30.0075 112.257 30.0027C112.43 30.0027 112.463 30.0027 112.562 29.9118L112.67 29.8044V29.4327C112.63 29.2705 112.64 29.0999 112.699 28.9436C112.758 28.7873 112.863 28.6525 113 28.5571C113.267 28.2899 113.57 28.0618 113.901 27.8798C114.124 27.7476 114.14 27.7394 114.148 27.5824C114.157 27.4255 114.148 27.3181 113.892 27.3181C113.616 27.3408 113.354 27.4474 113.141 27.6237C113.005 27.7192 112.864 27.8074 112.719 27.888L112.546 27.9872V27.822C112.529 27.6489 112.529 27.4746 112.546 27.3016C112.546 26.9794 112.546 26.9299 112.496 26.8142C112.437 26.7249 112.348 26.6593 112.246 26.6291C112.143 26.5988 112.033 26.6059 111.935 26.649H111.885Z" fill="white"/>
<path d="M121.153 26.3268C120.724 26.3763 120.583 26.4176 120.451 26.5828C120.405 26.6312 120.363 26.6837 120.327 26.7398C120.345 26.7898 120.37 26.837 120.401 26.8802C120.509 27.0537 120.748 27.1032 121.037 27.0206C121.307 26.9513 121.586 26.9289 121.863 26.9545C122.384 26.9545 122.466 26.9545 122.582 27.0289C122.698 27.1032 122.739 27.2106 122.582 27.4915C122.339 27.797 122.062 28.0741 121.756 28.3175C121.553 28.4673 121.368 28.639 121.203 28.8296C121.087 29.0361 121.203 29.2674 121.533 29.4078C121.978 29.5662 122.449 29.639 122.921 29.6226C123.157 29.651 123.396 29.6168 123.615 29.5235C123.821 29.4244 123.92 29.2922 123.879 29.1518C123.838 29.0113 123.697 28.9618 123.053 28.9535C122.409 28.9453 122.285 28.9535 122.285 28.8379C122.416 28.6706 122.579 28.5304 122.764 28.4249C123.081 28.1655 123.341 27.8418 123.524 27.4749C123.589 27.371 123.624 27.2507 123.624 27.128C123.624 27.0053 123.589 26.885 123.524 26.7811C123.445 26.6724 123.344 26.5822 123.227 26.5166C123.11 26.451 122.98 26.4116 122.846 26.4011C122.325 26.32 121.795 26.2978 121.269 26.335L121.153 26.3268Z" fill="white"/>
<path d="M115.123 26.5828C114.917 26.6489 114.892 26.7398 114.875 27.5988C114.824 28.3469 114.824 29.0976 114.875 29.8456C114.958 30.1678 115.214 30.3082 115.478 30.176C115.537 30.1534 115.593 30.1228 115.643 30.0852C115.643 30.0852 115.685 27.2767 115.685 26.9793C115.685 26.8306 115.685 26.7728 115.594 26.7067C115.532 26.648 115.456 26.6065 115.374 26.5862C115.291 26.5659 115.205 26.5676 115.123 26.5911V26.5828Z" fill="white"/>
<path d="M117.832 26.3846C117.469 26.4424 117.271 26.5415 117.196 26.715C117.122 26.8885 117.196 26.9628 117.353 27.0454C117.51 27.128 117.585 27.1445 117.981 27.0454C118.167 26.9713 118.369 26.9457 118.568 26.9711C119.014 27.0124 118.972 27.0784 117.659 28.3257C117.329 28.6396 117.312 28.6644 117.287 28.8461C117.263 29.0279 117.287 29.0526 117.362 29.1435C117.586 29.3649 117.876 29.5095 118.188 29.5565C118.575 29.6016 118.965 29.6016 119.352 29.5565C119.666 29.4822 119.749 29.4161 119.749 29.2426C119.749 29.0692 119.468 28.8544 118.758 28.8957C118.485 28.8957 118.212 28.8957 118.212 28.7966C118.367 28.5947 118.551 28.4166 118.758 28.2679C119.079 28.0198 119.358 27.7214 119.584 27.3841C119.63 27.2671 119.664 27.1452 119.683 27.0206C119.683 26.8306 119.683 26.8224 119.542 26.6572C119.444 26.5342 119.307 26.4471 119.154 26.4094C118.72 26.3326 118.275 26.3326 117.841 26.4094L117.832 26.3846Z" fill="white"/>
<path d="M69.7495 26.6325L69.4852 26.7068C69.2899 26.7491 69.107 26.836 68.9509 26.9607C68.7947 27.0853 68.6694 27.2444 68.5849 27.4255C68.5282 27.5376 68.4589 27.6429 68.3783 27.7394C68.3152 28.2017 68.378 28.6726 68.5601 29.1023C68.7685 29.3627 69.0602 29.5435 69.3861 29.6144C69.7159 29.6751 70.0559 29.6466 70.3711 29.5319C70.6862 29.4172 70.9649 29.2204 71.1786 28.9619C71.2199 28.8793 71.2199 28.8545 71.1786 28.7636C71.1373 28.6728 71.096 28.6728 70.9803 28.6893C70.8584 28.7162 70.7395 28.7549 70.6251 28.8049C69.9643 29.0693 69.4439 29.0032 69.3283 28.648C69.2705 28.491 69.3283 28.4415 69.4935 28.4663C69.7746 28.4647 70.0536 28.4172 70.3195 28.3258C70.7408 28.1524 71.1455 27.7641 71.1455 27.4998C71.1115 27.3286 71.0416 27.1665 70.9406 27.0241C70.8395 26.8818 70.7095 26.7624 70.559 26.6738C70.3289 26.6051 70.088 26.5799 69.8487 26.5994L69.7495 26.6325ZM70.2121 27.4998C70.2121 27.5989 70.2121 27.6237 70.0469 27.6981C69.7248 27.855 69.3613 27.855 69.3613 27.6981C69.3762 27.5841 69.4278 27.4782 69.5083 27.3962C69.5888 27.3142 69.6938 27.2607 69.8074 27.2437C69.8942 27.2319 69.9824 27.251 70.0565 27.2979C70.1305 27.3448 70.1857 27.4163 70.2121 27.4998V27.4998Z" fill="white"/>
<path d="M90.3175 25.889C90.0139 25.9695 89.7318 26.1162 89.4915 26.3185C89.2773 26.4527 89.0932 26.6299 88.951 26.8389C88.8088 27.0479 88.7116 27.2842 88.6655 27.5328C88.5912 28.1523 89.285 28.7057 90.1523 28.7305C90.5566 28.7327 90.9536 28.6241 91.3005 28.4166C91.4575 28.2927 91.507 28.3505 91.507 28.6562C91.525 28.7949 91.4928 28.9356 91.4162 29.0526C91.3122 29.2008 91.1735 29.3212 91.0122 29.4032C90.8509 29.4853 90.672 29.5266 90.491 29.5235H90.2184L90.0863 29.3665C89.9789 29.2344 89.9293 29.2096 89.8219 29.2096C89.7146 29.2096 89.5328 29.2922 89.442 29.507C89.3511 29.7217 89.3428 29.8374 89.442 29.953C89.5411 30.0687 89.6815 30.1347 90.1441 30.1595C90.5943 30.2141 91.0503 30.1275 91.4492 29.9117C91.6687 29.8162 91.8638 29.6721 92.0197 29.4905C92.1756 29.3088 92.2884 29.0941 92.3496 28.8627C92.398 28.5427 92.3638 28.2158 92.2505 27.9127C92.2038 27.7622 92.1734 27.6071 92.1596 27.4502C92.1596 27.3676 92.1596 27.285 92.1596 27.2767C92.1476 27.2391 92.1476 27.1987 92.1596 27.161C92.1501 27.0953 92.1246 27.0329 92.0852 26.9793C92.0548 26.9447 92.0298 26.9057 92.0109 26.8637C91.9937 26.8158 91.9686 26.7711 91.9366 26.7315C91.8863 26.6409 91.8422 26.5471 91.8044 26.4507C91.7718 26.3227 91.7068 26.2054 91.6157 26.1099C91.5245 26.0144 91.4103 25.944 91.284 25.9055C90.984 25.8224 90.6671 25.8224 90.3671 25.9055L90.3175 25.889ZM90.7801 26.4259C90.8207 26.4745 90.8493 26.532 90.8637 26.5937C90.878 26.6553 90.8777 26.7195 90.8627 26.7811C90.8627 26.9298 90.8627 26.9545 90.9288 27.0124C90.9949 27.0702 91.0775 27.1941 91.1271 27.4336C91.1271 27.541 91.1271 27.5741 91.0032 27.7062C90.874 27.8468 90.7123 27.9534 90.5322 28.0168C90.3522 28.0802 90.1593 28.0983 89.9706 28.0697C89.8673 28.0378 89.7722 27.9835 89.6923 27.9107C89.6123 27.8379 89.5494 27.7483 89.508 27.6484C89.442 27.3097 89.9624 26.6654 90.4497 26.4754C90.6645 26.3846 90.6975 26.3846 90.7553 26.4176L90.7801 26.4259Z" fill="white"/>
<path d="M84.3867 26.7068C84.2463 26.7646 84.1719 26.8968 84.1306 27.1198C84.1386 27.5522 84.211 27.9809 84.3454 28.3919C84.4643 28.7882 84.7149 29.132 85.0558 29.3666C85.3252 29.5268 85.6346 29.607 85.9479 29.5979C86.3691 29.5979 86.3196 29.5979 86.8978 29.3501C87.2675 29.1372 87.5575 28.8095 87.7238 28.4167C87.8387 28.006 87.8387 27.5717 87.7238 27.1611C87.6846 27.0595 87.617 26.9713 87.5292 26.9069C87.4414 26.8425 87.3369 26.8046 87.2282 26.7977C86.9474 26.7977 86.7243 27.1446 86.8895 27.3346C86.9871 27.5732 87.0045 27.8369 86.9391 28.0863C86.9221 28.2612 86.8498 28.4261 86.7326 28.5571C86.6682 28.6707 86.5779 28.7675 86.4689 28.8394C86.3599 28.9114 86.2354 28.9565 86.1056 28.971C85.9758 28.9855 85.8444 28.969 85.7223 28.9229C85.6001 28.8768 85.4906 28.8024 85.4027 28.7058C85.0888 28.2529 84.9269 27.712 84.9401 27.1611C84.9897 26.7646 84.7171 26.5499 84.3619 26.7068H84.3867Z" fill="white"/>
<path d="M100.519 25.9551C100.457 25.9967 100.404 26.05 100.362 26.1121C100.313 26.2029 100.362 26.236 100.362 26.459C100.469 26.776 100.634 27.0701 100.849 27.3263C100.889 27.3715 100.922 27.4215 100.949 27.475C101.17 27.7031 101.434 27.8855 101.725 28.0119C101.807 28.0329 101.884 28.0724 101.948 28.1276C101.917 28.266 101.867 28.3995 101.799 28.5241C101.62 28.8618 101.482 29.2195 101.386 29.5897C101.361 29.7028 101.325 29.8134 101.279 29.9201C101.229 30.1012 101.229 30.2923 101.279 30.4735C101.378 30.6552 101.659 30.647 101.857 30.4735C102.055 30.3 102.006 30.267 102.163 29.7301C102.207 29.592 102.259 29.4568 102.32 29.3253C102.356 29.2535 102.386 29.179 102.411 29.1023C102.598 28.6798 102.811 28.2689 103.047 27.8715C103.142 27.7689 103.22 27.6518 103.278 27.5246C103.278 27.4585 103.468 27.2355 103.617 27.0455C103.881 26.6903 103.881 26.6903 103.831 26.5416C103.782 26.3929 103.691 26.3021 103.451 26.269C103.212 26.236 103.278 26.269 103.113 26.4425C102.864 26.7488 102.632 27.0686 102.419 27.4007C102.295 27.5824 102.27 27.5989 102.188 27.5824C101.699 27.3209 101.332 26.8794 101.163 26.3516C101.147 26.2601 101.104 26.1751 101.042 26.1065C100.979 26.0378 100.898 25.9882 100.808 25.9634H100.626C100.574 25.961 100.522 25.9755 100.478 26.0047L100.519 25.9551Z" fill="white"/>
<path d="M127.208 26.4177C127.051 26.5499 127.051 26.6903 127.208 26.8555C127.276 26.9209 127.335 26.9961 127.381 27.0785C127.476 27.2104 127.584 27.3322 127.704 27.442L128.125 27.8632L128.282 28.0202L128.158 28.268C128.092 28.4084 127.984 28.6067 127.935 28.7223C127.891 28.8134 127.841 28.9017 127.786 28.9866C127.786 28.9866 127.72 29.094 127.687 29.1518C127.598 29.3316 127.493 29.503 127.373 29.664C127.191 29.9448 127.191 30.1266 127.373 30.2587C127.457 30.3192 127.559 30.3518 127.662 30.3518C127.766 30.3518 127.867 30.3192 127.951 30.2587C127.997 30.2116 128.026 30.1506 128.034 30.0853C128.048 30.0268 128.076 29.9728 128.117 29.9283C128.167 29.8669 128.211 29.8004 128.249 29.7301C128.288 29.6451 128.332 29.5624 128.381 29.4823C128.43 29.3997 128.546 29.1932 128.637 29.0114C128.771 28.7203 128.934 28.4436 129.124 28.1854C129.157 28.1587 129.182 28.1247 129.199 28.0863C129.395 27.8279 129.605 27.5797 129.826 27.3429C129.878 27.2893 129.914 27.2218 129.929 27.1485C129.943 27.0753 129.936 26.9993 129.909 26.9298C129.862 26.8531 129.795 26.7909 129.715 26.7501C129.634 26.7092 129.544 26.6914 129.455 26.6986C129.331 26.6986 129.215 26.8307 128.951 27.1611C128.843 27.2933 128.736 27.3924 128.695 27.3924C128.364 27.1514 128.084 26.8484 127.869 26.5003C127.786 26.3847 127.737 26.3434 127.629 26.3268C127.381 26.3268 127.291 26.3268 127.175 26.4012L127.208 26.4177Z" fill="white"/>
<path d="M49.1899 16.91H52.0397V19.2147C51.5533 19.2905 51.0615 19.3264 50.5693 19.322C47.3396 19.322 45.3323 17.513 45.3323 14.6054C45.3323 11.6978 47.4057 9.96318 50.8667 9.96318C52.2495 9.90537 53.6296 10.1302 54.9225 10.624L55.4346 10.8305L56.6489 6.70038L56.1533 6.49387C54.4642 5.91226 52.6858 5.63265 50.8997 5.66785C44.2915 5.66785 39.9466 9.24454 39.9136 14.7541C39.8834 15.9651 40.1175 17.1682 40.5997 18.2795C41.0819 19.3908 41.8005 20.3836 42.7056 21.1889C44.5311 22.7253 47.067 23.4769 50.4619 23.4769C52.5764 23.4521 54.6774 23.1381 56.7067 22.5435L57.1032 22.4196V12.8047H49.1899V16.91ZM64.43 5.85783H59.2509V23.353H71.7238V19.0329H64.43V5.85783ZM80.6284 5.59351C75.0775 5.59351 71.1952 9.34366 71.1952 14.7211C71.1952 19.9581 74.9536 23.6174 80.331 23.6174C86.1132 23.6174 89.822 20.0159 89.822 14.432C89.8633 10.0375 87.0136 5.59351 80.6449 5.59351H80.6284ZM80.5458 19.4625C78.2246 19.4625 76.6635 17.5213 76.6635 14.6302C76.6635 11.7391 78.1999 9.74841 80.5706 9.74841C83.2304 9.74841 84.4281 12.1604 84.4281 14.5559C84.4198 17.5874 82.9412 19.4625 80.5623 19.4625H80.5458ZM100.09 5.59351C94.5386 5.59351 90.6563 9.34366 90.6563 14.7211C90.6563 19.9581 94.4147 23.6174 99.7922 23.6174C105.574 23.6174 109.275 20.0159 109.275 14.432C109.308 10.0375 106.458 5.59351 100.09 5.59351ZM100.007 19.4625C97.6858 19.4625 96.1246 17.5213 96.1246 14.6302C96.1246 11.7391 97.661 9.74841 100.032 9.74841C102.7 9.74841 103.889 12.1604 103.889 14.5559C103.864 17.5874 102.427 19.4625 100.007 19.4625V19.4625ZM124.49 5.85783L122.425 11.64C122.012 12.846 121.599 14.2585 121.17 15.7288C120.831 14.3824 120.468 13.0195 120.046 11.6813L118.122 5.85783H111.745L110.497 23.353H115.404L115.792 16.5962C115.792 16.5962 115.858 15.0845 115.933 13.4903C116.197 14.5063 116.478 15.4975 116.759 16.3814L118.84 23.0887H122.813L125.176 16.3566C125.548 15.3489 125.928 14.2337 126.291 13.1021C126.332 14.3659 126.374 15.5801 126.415 16.5383L126.737 23.353H131.842L130.785 5.85783H124.49ZM143.844 5.85783L141.845 10.0871C141.498 10.8305 141.193 11.4913 140.912 12.1521C140.631 11.5161 140.325 10.8801 139.945 10.0871L138.103 6.17998L137.946 5.85783H131.85L138.111 16.2657V23.353H143.315V16.1584L149.849 5.85783H143.844Z" fill="white"/>
<path d="M125.242 23.477C124.969 23.5843 124.969 23.7165 124.969 24.303V25.3933L125.068 28.2349V29.6556L125.217 29.8043L125.572 29.9695C125.662 29.9861 125.753 29.982 125.841 29.9577C125.928 29.9333 126.009 29.8894 126.076 29.8291C126.134 29.7601 126.173 29.6782 126.192 29.5904C126.211 29.5026 126.208 29.4116 126.184 29.3252V28.9122L126.084 26.4341L126.027 25.8229L125.977 24.6747C125.977 23.9478 125.977 23.8487 125.903 23.7743C125.844 23.6558 125.746 23.5614 125.626 23.5071C125.505 23.4529 125.369 23.4422 125.242 23.477V23.477ZM125.705 23.8735C125.725 24.1319 125.725 24.3915 125.705 24.6499L125.762 25.8229L125.82 26.4176L125.911 28.8957V29.3665C125.932 29.409 125.942 29.4556 125.942 29.5028C125.942 29.55 125.932 29.5966 125.911 29.6391C125.872 29.6701 125.827 29.6921 125.778 29.7036C125.729 29.715 125.679 29.7155 125.63 29.7052L125.424 29.6061L125.349 29.54C125.349 29.4409 125.349 28.2266 125.349 28.2266L125.258 25.3603L125.225 24.303C125.225 23.7578 125.225 23.7578 125.333 23.7248C125.401 23.7017 125.476 23.7031 125.544 23.7287C125.611 23.7543 125.668 23.8025 125.705 23.8652V23.8735Z" fill="white"/>
<path d="M64.3061 24.8399L64.1161 24.9638C64.0665 25.0134 64.0417 25.0382 64.1161 26.0129C64.1739 26.8389 64.1739 27.6649 64.1161 29.5813L64.2069 29.8291C64.2713 29.8809 64.3454 29.9193 64.4249 29.9419C64.5043 29.9646 64.5875 29.9712 64.6695 29.9613C64.9173 29.9613 64.9917 29.9613 65.1238 29.7961C65.1765 29.7308 65.2148 29.6551 65.2362 29.5739C65.2575 29.4928 65.2615 29.408 65.2477 29.3253C65.2543 29.059 65.3251 28.7983 65.4542 28.5653L65.5864 28.3505L65.702 28.1523V28.2184C65.7912 28.1607 65.8935 28.1266 65.9994 28.1193H66.082L66.1316 28.2019C66.2188 28.4717 66.2851 28.7479 66.3298 29.0279C66.4868 29.8539 66.5528 30.1182 66.685 30.2587C66.7637 30.3402 66.8672 30.3934 66.9793 30.4098C67.0914 30.4262 67.2058 30.405 67.3045 30.3495C67.3619 30.3301 67.4148 30.2994 67.4602 30.2592C67.5055 30.219 67.5423 30.1701 67.5685 30.1155C67.5947 30.0608 67.6097 30.0015 67.6126 29.941C67.6154 29.8804 67.6062 29.8199 67.5854 29.7631L67.4697 29.1766C67.2715 28.0367 67.2054 27.8219 66.9824 27.5245C66.8278 27.3614 66.6265 27.2501 66.4062 27.2057C66.1859 27.1613 65.9573 27.1861 65.7516 27.2767L65.4873 27.3428C65.3303 27.3428 65.2725 27.4171 65.2642 27.4915V27.4337C65.2642 27.2354 65.2642 26.7233 65.2642 26.7233V25.7238V25.3108C65.2642 25.0547 65.2642 24.9556 65.1403 24.8399C65.0858 24.7847 65.0208 24.7409 64.9492 24.711C64.8776 24.6811 64.8008 24.6657 64.7232 24.6657C64.6456 24.6657 64.5688 24.6811 64.4972 24.711C64.4256 24.7409 64.3606 24.7847 64.3061 24.8399V24.8399ZM64.8182 25.063C64.8678 25.063 64.876 25.1125 64.876 25.3521V25.7899V26.7728C64.876 27.6897 64.876 27.698 64.9504 27.7393C65.0247 27.7806 65.1403 27.7393 65.1982 27.7393C65.2676 27.7168 65.3301 27.677 65.3799 27.6236V27.6236L65.7351 27.541C65.8896 27.4705 66.0622 27.4492 66.2292 27.4803C66.3962 27.5113 66.5496 27.5931 66.6685 27.7145C66.8585 27.9541 66.9163 28.144 67.1063 29.2261L67.2219 29.8374C67.2632 29.9943 67.2219 30.0522 67.0898 30.1182C66.9576 30.1843 66.842 30.1761 66.7676 30.1182C66.6025 29.7737 66.5044 29.4008 66.4785 29.0196C66.4286 28.7113 66.354 28.4074 66.2555 28.111C66.1646 27.9293 66.1068 27.8797 65.9085 27.8797C65.7103 27.8797 65.3716 27.9541 65.3716 28.1688C65.3265 28.2539 65.2878 28.3422 65.256 28.4332C65.1138 28.686 65.0345 28.9693 65.0247 29.2592C65.0247 29.4822 65.0247 29.4987 64.9586 29.5648C64.8925 29.6309 64.8925 29.6391 64.7025 29.6391C64.5126 29.6391 64.4465 29.6391 64.43 29.5813V29.5235C64.43 28.6975 64.43 28.0449 64.43 27.5245C64.43 26.8637 64.43 26.4011 64.43 25.9386C64.43 25.476 64.43 25.2612 64.43 25.1125C64.4276 25.085 64.4276 25.0574 64.43 25.0299L64.5291 24.9638C64.5816 24.9578 64.6348 24.9636 64.6848 24.9807C64.7349 24.9979 64.7804 25.026 64.8182 25.063Z" fill="white"/>
<path d="M93.4483 24.4931C93.2914 24.65 93.2996 24.6996 93.3987 25.2613C93.4803 25.8246 93.5024 26.3949 93.4648 26.9629L93.2914 28.7306C93.2253 29.094 93.217 29.2097 93.4566 29.3832C93.5489 29.4383 93.6521 29.4728 93.7591 29.4842C93.866 29.4956 93.9742 29.4837 94.0761 29.4492C94.1598 29.4313 94.2383 29.3944 94.3056 29.3414C94.3729 29.2884 94.4272 29.2208 94.4643 29.1436V28.8462C94.4602 28.8106 94.4602 28.7745 94.4643 28.7389C94.5043 28.4196 94.6299 28.117 94.8278 27.8633L95.0591 27.6237L95.183 27.5411C95.2098 27.6007 95.2401 27.6586 95.2738 27.7146C95.402 28.0472 95.4907 28.3938 95.5382 28.7471L95.7199 29.2262C95.8228 29.3692 95.9726 29.4715 96.1431 29.5152C96.3137 29.559 96.4943 29.5415 96.6533 29.4658C96.9341 29.2923 96.8681 29.061 96.7442 28.838L96.6202 28.5076C96.4303 27.4172 96.1412 26.6738 95.3564 26.5994H95.1664C95.0343 26.5499 94.7369 26.682 94.5469 26.8142C94.5469 26.6655 94.5469 26.459 94.5469 26.3516L94.4891 25.3108L94.4395 24.8731L94.2909 24.5344C94.2443 24.4681 94.1803 24.416 94.1059 24.3839C94.0316 24.3518 93.9497 24.341 93.8696 24.3527C93.7932 24.3388 93.7146 24.3445 93.641 24.369C93.5674 24.3936 93.5011 24.4362 93.4483 24.4931V24.4931ZM93.6053 29.1849C93.4814 29.094 93.4813 29.094 93.5392 28.7802L93.7126 26.9959C93.7535 26.4173 93.7342 25.8359 93.6548 25.2613C93.564 24.7491 93.564 24.7491 93.6548 24.6831C93.7209 24.6087 93.7209 24.6087 93.8778 24.6087C94.0348 24.6087 94.0265 24.6087 94.1009 24.6913L94.1835 24.8648L94.2496 25.3439L94.2991 26.3434C94.2991 26.9959 94.2991 27.1116 94.4395 27.1694C94.58 27.2272 94.5717 27.1694 94.6378 27.0703C94.7798 26.9592 94.9473 26.8854 95.1251 26.8555H95.3564C95.819 26.9051 96.1825 27.2024 96.389 28.5571L96.5376 28.9536C96.6533 29.1766 96.6202 29.1932 96.5376 29.2427C96.4336 29.2857 96.3179 29.2919 96.2098 29.2604C96.1017 29.2288 96.0076 29.1614 95.9429 29.0693L95.8107 28.6976C95.7627 28.323 95.6655 27.9564 95.5216 27.6072C95.4556 27.4585 95.3812 27.3263 95.249 27.2933C95.1868 27.2857 95.1237 27.293 95.0648 27.3145C95.0059 27.3361 94.953 27.3713 94.9104 27.4172L94.6213 27.7311C94.2743 28.3176 94.1835 28.5571 94.2248 28.8793V29.0527C94.1721 29.1289 94.0923 29.1821 94.0017 29.2014C93.9381 29.2261 93.87 29.2374 93.8018 29.2346C93.7335 29.2317 93.6666 29.2148 93.6053 29.1849V29.1849Z" fill="white"/>
<path d="M114.76 25.0381C114.666 25.0461 114.577 25.0796 114.501 25.1349C114.425 25.1903 114.366 25.2654 114.33 25.352C114.288 25.4335 114.28 25.5279 114.306 25.6156C114.332 25.7034 114.391 25.7776 114.47 25.8229C114.634 25.9515 114.833 26.0265 115.04 26.0376C115.111 26.0576 115.185 26.0574 115.255 26.0369C115.325 26.0164 115.388 25.9766 115.437 25.922C115.488 25.8789 115.527 25.8239 115.552 25.762C115.576 25.7 115.585 25.633 115.577 25.5668C115.552 25.4648 115.502 25.3706 115.431 25.2928C115.36 25.215 115.272 25.1558 115.173 25.1207L114.875 25.0216L114.76 25.0381ZM114.925 25.2777L115.049 25.352C115.108 25.3733 115.163 25.4061 115.21 25.4487C115.257 25.4912 115.294 25.5426 115.321 25.5998C115.323 25.6269 115.317 25.6538 115.306 25.6783C115.294 25.7028 115.277 25.724 115.255 25.7402C115.197 25.7981 115.197 25.7981 115.073 25.7815C114.919 25.7731 114.77 25.7216 114.644 25.6329C114.537 25.5337 114.537 25.5172 114.57 25.4429C114.589 25.3999 114.621 25.3633 114.66 25.337C114.699 25.3108 114.745 25.296 114.793 25.2942V25.2942L114.925 25.2777Z" fill="white"/>
<path d="M75.7052 25.286C75.416 25.3686 75.35 25.5999 75.3252 26.0624L75.0113 28.3505C74.8791 29.1766 74.8626 29.3831 75.0113 29.54C75.16 29.697 75.2013 29.6804 75.3995 29.6804C75.4789 29.689 75.5592 29.6818 75.6358 29.6591C75.7124 29.6364 75.7837 29.5987 75.8456 29.5483L76.0356 29.4078V29.0361V28.6892V28.3671L76.2421 26.9545C76.2421 26.9545 76.2421 26.8967 76.2421 26.8306C76.3329 26.9628 76.4651 27.1363 76.6303 27.4006C76.9738 27.9643 77.251 28.5658 77.4563 29.1931C77.4986 29.302 77.5677 29.3985 77.6573 29.4736C77.7468 29.5487 77.8538 29.5999 77.9685 29.6226C78.2741 29.6226 78.7036 29.35 78.7036 29.0774L78.844 28.4331C78.9983 27.8446 79.1088 27.2455 79.1745 26.6407C79.224 26.112 79.1745 25.922 78.9101 25.7073C78.7532 25.5833 78.6871 25.5833 78.4641 25.6246C78.2411 25.666 78.175 25.6907 78.0924 25.8559V26.2359C78.1036 26.343 78.1036 26.451 78.0924 26.5581C78.0933 26.7414 78.0739 26.9242 78.0345 27.1032L77.9519 27.5328L77.828 27.3428C77.5866 26.8592 77.3076 26.3952 76.9938 25.9551L76.6964 25.699L76.4734 25.509C76.3902 25.3895 76.2685 25.3022 76.1287 25.2616C75.9889 25.221 75.8394 25.2296 75.7052 25.286ZM76.2669 25.6825L76.5477 25.9303L76.8038 26.145C77.1134 26.5632 77.3896 27.0051 77.6298 27.4667C77.8859 27.9293 77.9437 27.9375 78.0015 27.9375C78.0593 27.9375 78.208 27.7475 78.2411 27.5493L78.3154 27.1611C78.3852 26.8315 78.3852 26.4911 78.3154 26.1616V25.9551C78.3154 25.889 78.3154 25.889 78.5054 25.8642C78.6954 25.8394 78.6623 25.8642 78.7449 25.8642C78.8275 25.8642 78.9597 26.0459 78.9101 26.5663C78.8432 27.1568 78.7356 27.7419 78.588 28.3175L78.4393 29.0279C78.3882 29.1107 78.3181 29.1802 78.2348 29.2305C78.1514 29.2808 78.0573 29.3104 77.9602 29.317C77.8536 29.2713 77.764 29.1933 77.7041 29.094C77.4991 28.4376 77.222 27.806 76.8781 27.2106C76.3495 26.3846 76.2669 26.3846 76.2173 26.3846H76.1677H76.1182C76.1182 26.3846 76.0356 26.4342 75.986 26.8637L75.7712 28.2844V28.5901V28.9783V29.2592L75.6804 29.3252C75.5895 29.3996 75.5647 29.4078 75.3995 29.4078C75.2343 29.4078 75.2261 29.4078 75.2013 29.3583C75.1829 29.3282 75.1715 29.2943 75.1682 29.2592C75.1893 28.9821 75.2251 28.7064 75.2756 28.4331L75.5895 26.1203C75.5895 25.6412 75.6804 25.5999 75.7795 25.5751C75.8604 25.5329 75.9536 25.5205 76.0427 25.5401C76.1318 25.5597 76.2112 25.6101 76.2669 25.6825Z" fill="white"/>
<path d="M61.4645 25.3274C61.3819 25.3687 61.3736 25.3769 60.9028 25.3274C60.0768 25.2613 60.0272 25.2613 59.8042 25.4347C59.5812 25.6082 59.5977 25.666 59.5977 25.6991C59.5977 25.7321 59.7794 25.9799 59.9033 25.9882L60.3411 26.046L60.9771 26.1038H61.2415V26.3103C61.2578 26.6075 61.2578 26.9053 61.2415 27.2024C61.2415 27.4255 61.2415 27.632 61.2415 27.7889V28.458V28.6232C61.2415 29.3831 61.2993 29.6888 61.4728 29.8622C61.5221 29.909 61.5806 29.9449 61.6447 29.9676C61.7087 29.9904 61.7767 29.9995 61.8445 29.9944L62.2079 29.8457C62.3127 29.7497 62.375 29.616 62.3814 29.474C62.3926 29.4139 62.3926 29.3523 62.3814 29.2923C62.3814 29.1684 62.3814 28.1689 62.3814 27.3016C62.3814 26.7564 62.3814 26.2773 62.3814 26.1121C62.5133 26.1002 62.646 26.1002 62.7779 26.1121H62.7283L62.8687 26.2029C63.0511 26.2339 63.2386 26.1988 63.3974 26.1038C63.4861 26.0588 63.5575 25.986 63.6008 25.8964C63.6441 25.8069 63.6568 25.7056 63.6369 25.6082L63.3726 25.4017C63.1404 25.316 62.8896 25.2932 62.6457 25.3356C62.2492 25.3356 62.1666 25.3356 62.0923 25.3356C61.9985 25.2767 61.8903 25.2448 61.7796 25.2433C61.6688 25.2419 61.5598 25.2709 61.4645 25.3274V25.3274ZM61.5967 25.5421C61.6516 25.5094 61.7144 25.4921 61.7784 25.4921C61.8424 25.4921 61.9052 25.5094 61.9601 25.5421C62.0923 25.6082 62.2162 25.6082 62.6375 25.5917C63.0587 25.5752 63.1166 25.5917 63.2487 25.633L63.3891 25.7156C63.3501 25.7793 63.2997 25.8353 63.2405 25.8808C63.1357 25.933 63.0179 25.9531 62.9018 25.9386C62.8357 25.823 62.2657 25.8891 62.1831 25.9386C61.9766 26.0625 62.1336 29.3749 62.1831 29.3997C62.2078 29.4535 62.213 29.5141 62.1979 29.5714C62.1829 29.6286 62.1485 29.6788 62.1005 29.7135L61.9271 29.7796C61.8586 29.7858 61.7905 29.765 61.7371 29.7218C61.5807 29.3345 61.5294 28.9128 61.5884 28.4993V27.8467C61.623 27.3379 61.623 26.8274 61.5884 26.3186C61.5223 25.9056 61.4562 25.8725 61.0267 25.8725L60.432 25.8147L59.9611 25.7486L60.0355 25.6825C60.1759 25.5834 60.1842 25.5752 60.9606 25.633C61.3654 25.633 61.4397 25.6412 61.5967 25.5421Z" fill="white"/>
<path d="M109.093 25.5421L108.573 25.5834C108.222 25.6849 107.905 25.8789 107.656 26.1451L107.218 26.905C107.048 27.249 106.955 27.6255 106.943 28.0089C106.932 28.3922 107.003 28.7736 107.152 29.127C107.279 29.4089 107.486 29.6473 107.747 29.8126C107.963 29.9599 108.208 30.0609 108.465 30.1092C108.722 30.1576 108.987 30.1522 109.242 30.0935C109.486 30.0881 109.725 30.0264 109.942 29.9132C110.158 29.8 110.345 29.6384 110.489 29.4409C110.579 29.3144 110.631 29.1651 110.64 29.0103C110.648 28.8554 110.613 28.7012 110.539 28.5653C110.447 28.3012 110.253 28.0844 110.002 27.9624C109.827 27.819 109.608 27.7402 109.382 27.7393C109.098 27.7115 108.811 27.766 108.556 27.8963C108.477 27.9267 108.407 27.9756 108.351 28.0388C108.295 28.102 108.255 28.1778 108.234 28.2597C108.214 28.3347 108.212 28.4134 108.227 28.4894C108.243 28.5655 108.277 28.6368 108.325 28.6975C108.441 28.8462 108.515 28.8462 108.721 28.8297L109.11 28.6893C109.234 28.5984 109.291 28.5984 109.407 28.6893C109.523 28.7801 109.498 28.7636 109.498 28.871C109.498 28.9784 109.498 29.061 109.324 29.1353C109.214 29.1933 109.092 29.2277 108.967 29.2365C108.842 29.2452 108.717 29.2281 108.599 29.1863C108.481 29.1444 108.373 29.0786 108.282 28.9931C108.191 28.9076 108.118 28.8041 108.069 28.6893C107.961 28.3366 107.961 27.9598 108.069 27.6072L108.209 27.1528C108.246 26.9726 108.342 26.8098 108.482 26.6903C108.754 26.4342 108.796 26.4259 108.911 26.4012H109.176C109.362 26.4345 109.531 26.5307 109.655 26.6738C109.655 26.8224 109.936 27.0124 110.084 27.0455C110.181 27.0579 110.28 27.0455 110.371 27.0094C110.462 26.9733 110.543 26.9146 110.605 26.839C110.737 26.6985 110.712 26.6325 110.605 26.4507C110.389 26.1208 110.086 25.8576 109.729 25.6908C109.534 25.5856 109.315 25.5343 109.093 25.5421V25.5421ZM109.093 25.8064C109.286 25.7765 109.484 25.8113 109.655 25.9055C109.958 26.0458 110.218 26.2656 110.406 26.5416L110.456 26.6407C110.417 26.6821 110.369 26.7146 110.317 26.7359C110.264 26.7573 110.207 26.7671 110.15 26.7646C110.06 26.7306 109.981 26.6737 109.919 26.5994C109.919 26.5498 109.919 26.4672 109.779 26.3764C109.604 26.2239 109.383 26.1338 109.151 26.1203L108.887 26.1616C108.68 26.1616 108.597 26.2607 108.325 26.5168C108.151 26.6694 108.027 26.8709 107.97 27.095L107.838 27.5411C107.709 27.9553 107.709 28.3989 107.838 28.8132C107.901 28.9583 107.994 29.0889 108.11 29.1969C108.226 29.305 108.363 29.3882 108.512 29.4416C108.661 29.495 108.82 29.5173 108.978 29.5072C109.136 29.4972 109.29 29.4549 109.432 29.3831C109.539 29.3574 109.633 29.2921 109.694 29.2002C109.756 29.1082 109.78 28.9966 109.762 28.8875C109.77 28.8145 109.758 28.7408 109.727 28.674C109.697 28.6072 109.649 28.5497 109.589 28.5075C109.505 28.4248 109.392 28.3784 109.275 28.3784C109.157 28.3784 109.044 28.4248 108.961 28.5075L108.705 28.5984H108.573C108.539 28.5673 108.514 28.5283 108.5 28.485C108.485 28.4417 108.482 28.3955 108.49 28.3506C108.502 28.3074 108.524 28.2676 108.554 28.2346C108.584 28.2015 108.622 28.1762 108.664 28.1606C108.877 28.0511 109.118 28.0052 109.357 28.0284C109.538 28.0255 109.714 28.087 109.853 28.2019C109.958 28.249 110.052 28.3174 110.128 28.4027C110.205 28.488 110.263 28.5884 110.299 28.6975C110.363 28.7898 110.397 28.8993 110.397 29.0114C110.397 29.1235 110.363 29.233 110.299 29.3253C110.172 29.4882 110.011 29.6214 109.827 29.7156C109.642 29.8097 109.44 29.8626 109.234 29.8705C109.008 29.923 108.773 29.9273 108.545 29.8832C108.318 29.839 108.102 29.7475 107.912 29.6144C107.689 29.4769 107.514 29.2753 107.408 29.0362C107.285 28.7961 107.223 28.5295 107.226 28.2597C107.242 27.8318 107.331 27.4098 107.491 27.0124L107.895 26.3103C108.111 26.0992 108.375 25.9434 108.664 25.856L109.093 25.8064Z" fill="white"/>
<path d="M97.9831 25.6659L97.8344 25.7981C97.8344 25.7981 97.8344 26.8554 97.8344 27.0371C97.3223 26.9628 97.1736 26.9462 97.0084 27.1032C96.9485 27.1387 96.8993 27.1896 96.8659 27.2506C96.8325 27.3117 96.8161 27.3806 96.8184 27.4501C96.8184 27.6318 96.8762 27.6897 97.0579 27.7723C97.293 27.8837 97.5495 27.9429 97.8096 27.9457H97.9501C98.0146 28.3838 98.0559 28.8249 98.074 29.2674C98.074 29.6143 98.074 29.6804 98.2557 29.8208C98.3011 29.8726 98.3594 29.9113 98.4248 29.9331C98.4901 29.9549 98.56 29.9589 98.6274 29.9447L98.9661 29.8043L99.1478 29.6639V29.1765L99.09 28.3505V27.987H99.1395C99.3956 27.987 99.6682 27.8136 99.7177 27.6318C99.7216 27.5934 99.7216 27.5546 99.7177 27.5162C99.7148 27.4188 99.6775 27.3256 99.6125 27.2531C99.5475 27.1805 99.459 27.1333 99.3626 27.1197H98.9991C98.9991 26.9628 98.9991 26.145 98.9991 26.145C99.0077 26.0706 98.9987 25.9952 98.9729 25.9249C98.947 25.8546 98.9051 25.7914 98.8504 25.7402C98.8034 25.6714 98.7418 25.6139 98.6698 25.5718C98.5978 25.5298 98.5174 25.5043 98.4344 25.4972C98.3514 25.4901 98.2678 25.5015 98.1897 25.5307C98.1117 25.5599 98.0411 25.6061 97.9831 25.6659V25.6659ZM98.5365 25.8724C98.5943 25.9385 98.6026 25.9467 98.6026 26.0954C98.6026 26.2441 98.6026 27.128 98.6687 27.2106C98.7348 27.2932 98.9082 27.3345 98.9661 27.3262H99.2304C99.4204 27.3758 99.3956 27.4749 99.3791 27.5244C99.2832 27.6235 99.1533 27.6825 99.0156 27.6897C98.9165 27.6897 98.7843 27.7475 98.7513 27.8466V28.3587L98.8009 29.1848C98.8009 29.1848 98.8009 29.4491 98.8009 29.54L98.7183 29.606L98.5035 29.6969C98.4209 29.6969 98.4126 29.6969 98.3383 29.6391C98.2639 29.5813 98.2557 29.5647 98.2392 29.2591C98.2299 28.7531 98.169 28.2494 98.0574 27.7557L97.727 27.6731C97.5022 27.6712 97.2802 27.6234 97.0745 27.5327L96.9919 27.4831C96.9919 27.3758 96.9919 27.3675 97.0745 27.2932C97.1571 27.2188 97.1901 27.2023 97.7353 27.2932L98.0327 27.3345C98.0327 27.3345 98.0327 26.0128 98.0327 25.9137L98.0987 25.8641C98.1272 25.8344 98.1614 25.8108 98.1994 25.795C98.2374 25.7792 98.2783 25.7714 98.3194 25.7722C98.3606 25.7729 98.4011 25.7822 98.4385 25.7995C98.4759 25.8168 98.5093 25.8416 98.5365 25.8724V25.8724Z" fill="white"/>
<path d="M80.7275 25.6163L80.4136 25.6742C80.3227 25.7124 80.2464 25.7788 80.1959 25.8635C80.1454 25.9482 80.1232 26.0468 80.1327 26.145C80.1327 26.3102 80.2236 26.3763 80.3888 26.4506C80.554 26.525 80.6779 26.525 80.711 26.5084H80.967C81.2066 26.5084 81.2231 26.5084 81.3057 26.558C81.4072 26.6488 81.4864 26.7619 81.537 26.8884L81.3305 26.9462C80.9814 27.0404 80.6534 27.2002 80.364 27.4171C80.2071 27.541 79.8188 27.9953 79.8188 28.1688C79.761 28.1688 79.7445 28.2927 79.7445 28.3918C79.7466 28.5218 79.7718 28.6505 79.8188 28.7717C79.9727 29.0192 80.1893 29.2215 80.4466 29.3582C80.7927 29.4527 81.1578 29.4527 81.5039 29.3582C81.743 29.2764 81.9685 29.1595 82.173 29.0113C82.1691 29.0553 82.1691 29.0995 82.173 29.1435L82.33 29.6226C82.3542 29.6948 82.3953 29.7602 82.4499 29.8133C82.5045 29.8665 82.571 29.9059 82.6439 29.9282C82.764 29.9625 82.8913 29.9621 83.0112 29.9271C83.1311 29.892 83.2386 29.8236 83.3212 29.7299C83.4286 29.5895 83.4121 29.5317 83.3212 29.2343L83.189 28.8048L83.0899 28.4909C82.9977 28.1619 82.8846 27.8391 82.7512 27.5245L82.6521 27.1032C82.6345 26.8524 82.5598 26.6089 82.4339 26.3913C82.3079 26.1738 82.1339 25.9878 81.9252 25.8476C81.7666 25.7417 81.5857 25.6739 81.3966 25.6494H80.6614L80.7275 25.6163ZM80.6366 26.2689L80.4962 26.2193C80.3888 26.1698 80.3888 26.1698 80.3888 26.1202C80.3901 26.0843 80.3997 26.0492 80.4169 26.0176C80.4341 25.9861 80.4584 25.959 80.4879 25.9385L80.7605 25.8889H81.4048C81.5563 25.9048 81.7012 25.9588 81.8261 26.0459C82.0089 26.1629 82.1608 26.3225 82.2687 26.5109C82.3765 26.6993 82.4372 26.911 82.4456 27.128L82.6026 27.6071C82.7272 27.9035 82.8347 28.2069 82.9247 28.5157L83.0403 28.8709L83.1477 29.2508C83.1528 29.3251 83.1528 29.3996 83.1477 29.4739C83.1547 29.4953 83.1547 29.5185 83.1477 29.54C83.0955 29.5888 83.0317 29.6235 82.9623 29.6408C82.8929 29.6582 82.8203 29.6576 82.7512 29.6391C82.6934 29.6391 82.6686 29.6391 82.6026 29.4656L82.4621 29.0526C82.4621 28.8626 82.3713 28.7304 82.2556 28.6891C82.2161 28.6765 82.1737 28.676 82.1339 28.6878C82.0941 28.6996 82.0588 28.7231 82.0326 28.7552C81.8478 28.8793 81.648 28.9792 81.4379 29.0526C81.1513 29.1313 80.8488 29.1313 80.5623 29.0526C80.3635 28.9389 80.1938 28.7805 80.0667 28.59C80.0404 28.4842 80.0404 28.3737 80.0667 28.2679C80.0667 28.2679 80.1327 28.1688 80.1327 28.1027C80.253 27.897 80.4033 27.7104 80.5788 27.5492C80.8382 27.3563 81.1328 27.216 81.4461 27.1362L81.917 26.9628V26.8636C81.8532 26.6359 81.724 26.432 81.5452 26.2772C81.3955 26.1824 81.2158 26.1471 81.0414 26.178L80.6697 26.2359L80.6366 26.2689Z" fill="white"/>
<path d="M111.852 26.525L111.612 26.6902C111.59 26.8685 111.59 27.0489 111.612 27.2271C111.605 28.1077 111.655 28.9879 111.761 29.8621C111.817 29.9482 111.895 30.0184 111.986 30.0661C112.077 30.1138 112.179 30.1374 112.282 30.1347C112.355 30.149 112.43 30.1443 112.501 30.1212C112.572 30.098 112.636 30.0572 112.686 30.0026L112.835 29.8539V29.4243C112.799 29.28 112.809 29.1282 112.862 28.9894C112.915 28.8506 113.009 28.7314 113.132 28.6479C113.391 28.389 113.686 28.1692 114.008 27.9953C114.239 27.8549 114.305 27.8136 114.314 27.5906L114.248 27.2849L113.934 27.1858C113.629 27.2087 113.34 27.3273 113.108 27.5245L112.686 27.7806C112.686 27.7227 112.686 27.3097 112.686 27.3097C112.686 27.3097 112.686 27.1197 112.686 27.0537C112.695 26.9453 112.666 26.8373 112.604 26.748C112.569 26.6839 112.522 26.6273 112.466 26.5814C112.409 26.5355 112.344 26.5012 112.274 26.4804C112.204 26.4597 112.131 26.453 112.059 26.4606C111.986 26.4683 111.916 26.4902 111.852 26.525V26.525ZM112.331 26.8802C112.381 26.9628 112.389 26.9793 112.331 27.2932V27.8384L112.389 28.1936L112.728 28.0036L113.149 27.731C113.343 27.5692 113.583 27.4711 113.835 27.4501H113.958V27.6071C113.958 27.698 113.958 27.698 113.777 27.7971C113.436 27.9851 113.124 28.2216 112.852 28.4992C112.554 28.8048 112.472 28.937 112.472 29.2509C112.468 29.3252 112.468 29.3996 112.472 29.4739C112.472 29.4739 112.472 29.7052 112.472 29.7878C112.447 29.8075 112.425 29.8296 112.405 29.8539C112.339 29.92 112.339 29.92 112.199 29.9034C112.142 29.9071 112.085 29.8978 112.032 29.8764C111.979 29.8549 111.932 29.8218 111.893 29.7795C111.844 29.6226 111.769 27.9045 111.769 27.1528C111.763 27.0455 111.763 26.9379 111.769 26.8306C111.769 26.8306 111.844 26.8306 111.844 26.8306C112.182 26.6985 112.273 26.7811 112.339 26.8802H112.331Z" fill="white"/>
<path d="M121.145 26.2029C120.707 26.2442 120.525 26.2938 120.319 26.492L120.17 26.7398L120.261 26.9463C120.349 27.0622 120.474 27.1449 120.615 27.1809C120.756 27.2169 120.905 27.2041 121.037 27.1446C121.286 27.083 121.543 27.0634 121.797 27.0868C122.301 27.0868 122.367 27.0868 122.45 27.1446H122.5C122.5 27.1446 122.499 27.2024 122.376 27.3759C122.13 27.6673 121.853 27.9305 121.55 28.1606C121.328 28.3221 121.129 28.5108 120.955 28.7223V29.061C120.994 29.1555 121.051 29.2413 121.123 29.3136C121.196 29.3859 121.282 29.4432 121.376 29.4822C121.84 29.6439 122.331 29.7168 122.822 29.697C123.077 29.7295 123.336 29.6953 123.573 29.5979C123.862 29.4575 123.92 29.2757 123.92 29.1601C123.92 29.0444 123.92 29.0857 123.92 29.0692C123.846 28.7966 123.557 28.7801 122.954 28.7719C122.813 28.7719 122.533 28.7719 122.376 28.7719C122.45 28.7223 122.582 28.6066 122.731 28.5158C123.073 28.2439 123.354 27.9034 123.557 27.5163C123.621 27.397 123.655 27.2636 123.656 27.1281C123.651 26.9718 123.603 26.82 123.516 26.6903C123.426 26.5683 123.313 26.4663 123.182 26.3909C123.051 26.3155 122.906 26.2684 122.756 26.2525C122.222 26.1811 121.682 26.1645 121.145 26.2029V26.2029ZM122.698 26.5168C122.816 26.5253 122.931 26.5593 123.035 26.6163C123.139 26.6733 123.23 26.7521 123.301 26.8472C123.354 26.9314 123.382 27.0287 123.382 27.1281C123.382 27.2274 123.354 27.3247 123.301 27.4089C123.126 27.7511 122.885 28.0545 122.59 28.301C122.59 28.301 122.053 28.6479 122.053 28.8297C122.053 29.0114 122.31 29.061 122.946 29.0692C123.458 29.0692 123.639 29.0692 123.656 29.1683C123.672 29.2675 123.532 29.3666 123.458 29.3996C123.383 29.4327 123.268 29.4822 122.822 29.4822C122.374 29.4878 121.929 29.4122 121.508 29.2592C121.446 29.2379 121.39 29.2042 121.341 29.1602C121.293 29.1162 121.254 29.0627 121.227 29.0031V28.8627C121.382 28.6911 121.553 28.536 121.74 28.4001C122.063 28.1602 122.357 27.883 122.615 27.5741C122.739 27.3841 122.805 27.2602 122.78 27.1363L122.607 26.9381C122.458 26.8555 122.343 26.8472 121.83 26.839C121.553 26.8207 121.274 26.8457 121.004 26.9133C120.781 26.9794 120.591 26.9133 120.517 26.8307V26.7729L120.591 26.682C120.691 26.5581 120.79 26.5168 121.211 26.4755C121.707 26.4373 122.205 26.4511 122.698 26.5168V26.5168Z" fill="white"/>
<path d="M115.082 26.4589C114.768 26.558 114.76 26.7728 114.743 27.5906C114.743 28.2266 114.743 28.6892 114.743 29.0196C114.731 29.2956 114.745 29.5721 114.784 29.8456C114.802 29.938 114.841 30.025 114.899 30.0996C114.956 30.1742 115.03 30.2343 115.115 30.2752C115.186 30.3095 115.263 30.3273 115.342 30.3273C115.421 30.3273 115.498 30.3095 115.569 30.2752C115.776 30.1678 115.784 30.1099 115.792 30.0686C115.8 30.0273 115.834 27.1528 115.834 26.9545L115.701 26.5828C115.617 26.5114 115.516 26.4626 115.408 26.4409C115.299 26.4192 115.187 26.4254 115.082 26.4589ZM115.206 30.0769C115.156 30.0501 115.113 30.0124 115.08 29.9666C115.047 29.9208 115.025 29.8682 115.016 29.8126C114.977 29.0752 114.977 28.3362 115.016 27.5988C115.016 26.7728 115.065 26.7728 115.173 26.7067C115.233 26.6903 115.296 26.6893 115.357 26.7037C115.417 26.7181 115.473 26.7476 115.52 26.7893L115.577 26.9711C115.577 26.9711 115.536 29.7217 115.528 30.0108L115.454 30.0604C115.418 30.0853 115.376 30.1006 115.333 30.1049C115.289 30.1093 115.246 30.1025 115.206 30.0852V30.0769Z" fill="white"/>
<path d="M117.808 26.2606C117.552 26.3019 117.196 26.3845 117.081 26.6654C117.058 26.7115 117.046 26.762 117.045 26.8133C117.044 26.8646 117.054 26.9156 117.074 26.9627C117.094 27.0098 117.125 27.0519 117.163 27.0861C117.201 27.1204 117.246 27.1459 117.296 27.161C117.527 27.2766 117.609 27.2684 118.014 27.161C118.184 27.0924 118.369 27.0669 118.551 27.0866H118.667C118.327 27.4837 117.96 27.8563 117.568 28.2018C117.229 28.5239 117.188 28.5735 117.163 28.8048C117.159 28.846 117.159 28.8875 117.163 28.9287C117.162 28.9778 117.17 29.0268 117.189 29.0724C117.207 29.118 117.235 29.1591 117.271 29.193C117.516 29.439 117.835 29.5984 118.179 29.6473C118.585 29.6965 118.996 29.6965 119.402 29.6473C119.675 29.5895 119.898 29.5152 119.889 29.2095L119.774 28.9287C119.617 28.78 119.328 28.7387 118.774 28.7717C118.664 28.7813 118.554 28.7813 118.444 28.7717C118.574 28.6317 118.715 28.5019 118.865 28.3835C119.187 28.1204 119.466 27.8082 119.691 27.4584L119.79 27.0536C119.794 27.0096 119.794 26.9654 119.79 26.9214C119.79 26.7893 119.79 26.7315 119.608 26.5828C119.491 26.4468 119.336 26.3489 119.162 26.3019C118.717 26.2053 118.258 26.1913 117.808 26.2606V26.2606ZM119.105 26.5332C119.235 26.5636 119.351 26.6362 119.435 26.7397C119.559 26.8719 119.559 26.8719 119.542 27.004L119.46 27.3345C119.245 27.648 118.983 27.9266 118.683 28.1605C118.089 28.6561 118.089 28.7387 118.089 28.7883V28.8461L118.138 28.9039C118.333 29.0074 118.555 29.0478 118.774 29.0195C118.939 29.0195 119.435 29.0195 119.6 29.1104V29.2343C119.6 29.3169 119.6 29.3582 119.311 29.4243C118.94 29.4648 118.567 29.4648 118.196 29.4243C117.91 29.3881 117.644 29.2606 117.436 29.0608C117.386 29.003 117.378 28.9948 117.436 28.8626C117.494 28.7304 117.436 28.7139 117.766 28.4165C118.857 27.384 119.022 27.2023 118.956 27.0123C118.89 26.8223 118.733 26.8554 118.592 26.8388C118.377 26.8169 118.159 26.8452 117.956 26.9214C117.585 27.0288 117.576 27.0206 117.428 26.9214C117.279 26.8223 117.32 26.8471 117.32 26.8141C117.315 26.7951 117.315 26.7752 117.32 26.7562C117.37 26.6323 117.543 26.5497 117.849 26.5084C118.266 26.4444 118.691 26.4528 119.105 26.5332V26.5332Z" fill="white"/>
<path d="M69.7083 26.5085L69.4522 26.5829C69.2396 26.6306 69.0407 26.726 68.8704 26.862C68.7001 26.9979 68.5629 27.1708 68.4693 27.3676L68.3041 27.6319L68.2215 27.7641C68.1813 28.2418 68.252 28.7224 68.428 29.1683C68.6449 29.458 68.9585 29.6602 69.3118 29.7383C69.6694 29.8099 70.0398 29.7814 70.3823 29.6561C70.7248 29.5308 71.0261 29.3134 71.253 29.0279C71.2831 28.9752 71.2973 28.915 71.2938 28.8545C71.2904 28.7939 71.2695 28.7357 71.2337 28.6867C71.1979 28.6378 71.1487 28.6003 71.092 28.5788C71.0353 28.5572 70.9736 28.5525 70.9143 28.5653L70.5261 28.681C70.2311 28.8346 69.8895 28.8729 69.5679 28.7883C69.528 28.7716 69.492 28.7469 69.4622 28.7156C69.4323 28.6843 69.4093 28.6472 69.3944 28.6066C69.6958 28.5914 69.9935 28.5329 70.2783 28.4332C70.6995 28.2514 71.1704 27.8302 71.1704 27.5163C71.1376 27.321 71.062 27.1353 70.9493 26.9726C70.8365 26.8098 70.6891 26.6739 70.5178 26.5746C70.2557 26.4957 69.9798 26.4732 69.7083 26.5085V26.5085ZM70.4104 26.8224C70.5372 26.9017 70.647 27.0053 70.7335 27.1272C70.8199 27.2491 70.8814 27.387 70.9143 27.5328C70.9143 27.6732 70.5922 28.0284 70.1791 28.2101C69.947 28.2866 69.7048 28.3284 69.4605 28.334C69.4099 28.3214 69.357 28.3217 69.3065 28.3346C69.2561 28.3476 69.2096 28.373 69.1714 28.4084C69.1496 28.452 69.1382 28.5 69.1382 28.5488C69.1382 28.5975 69.1496 28.6456 69.1714 28.6892C69.1959 28.7616 69.2349 28.8283 69.286 28.8851C69.3371 28.9419 69.3993 28.9877 69.4688 29.0196C69.8575 29.1427 70.2791 29.1071 70.6417 28.9205L70.9721 28.8131H71.0382V28.8792C70.8388 29.1147 70.5819 29.2947 70.2925 29.4018C70.003 29.5089 69.6909 29.5394 69.3862 29.4905C69.0922 29.4271 68.8294 29.2636 68.6427 29.0279C68.5058 28.6386 68.4496 28.2254 68.4775 27.8136L68.6923 27.4832C68.7712 27.3187 68.8866 27.1744 69.0298 27.0613C69.1729 26.9482 69.34 26.8693 69.5183 26.8307L69.7827 26.7563C69.9941 26.7455 70.2059 26.7678 70.4104 26.8224V26.8224Z" fill="white"/>
<path d="M90.2846 25.7651C89.9772 25.8491 89.6941 26.0048 89.4586 26.2194C89.2294 26.3625 89.0325 26.5517 88.8804 26.7749C88.7282 26.9982 88.6241 27.2506 88.5747 27.5162C88.564 27.6556 88.582 27.7956 88.6274 27.9277C88.6729 28.0598 88.7449 28.1812 88.839 28.2845C89.0139 28.4669 89.2244 28.6117 89.4574 28.7097C89.6903 28.8077 89.941 28.857 90.1937 28.8544C90.6205 28.8615 91.0409 28.75 91.408 28.5323C91.4058 28.5735 91.4058 28.6149 91.408 28.6562C91.422 28.7705 91.3988 28.8864 91.3419 28.9866C91.2503 29.119 91.1263 29.2258 90.9817 29.2967C90.837 29.3675 90.6767 29.4001 90.5159 29.3913H90.3094C90.282 29.3532 90.2516 29.3172 90.2185 29.2839C90.1811 29.2209 90.1279 29.1686 90.0642 29.1324C90.0004 29.0962 89.9284 29.0773 89.855 29.0774C89.7417 29.0758 89.6312 29.1124 89.5413 29.1814C89.4513 29.2503 89.3873 29.3476 89.3594 29.4574C89.305 29.5425 89.276 29.6414 89.276 29.7424C89.276 29.8434 89.305 29.9423 89.3594 30.0274C89.4916 30.2174 89.6898 30.2587 90.1855 30.2917C90.6611 30.3385 91.1402 30.2467 91.5649 30.0274C91.798 29.9199 92.0043 29.7619 92.1686 29.5647C92.3329 29.3675 92.4512 29.1361 92.5148 28.8874C92.56 28.5478 92.5231 28.2022 92.4075 27.8797L92.3249 27.4584C92.3249 27.3097 92.3249 27.2106 92.2257 27.1693C92.1266 27.128 92.1431 26.9132 92.1431 26.9132L92.0853 26.8306C92.0853 26.8719 92.0027 26.6654 92.0027 26.6654L91.8871 26.4176C91.8466 26.2725 91.7712 26.1394 91.6676 26.03C91.5639 25.9206 91.4351 25.8381 91.2923 25.7899C90.9651 25.6889 90.6164 25.6803 90.2846 25.7651ZM91.1932 26.0294C91.301 26.0643 91.3983 26.1257 91.4762 26.208C91.5542 26.2902 91.6102 26.3907 91.6393 26.5002L91.7797 26.8141L91.8375 26.905C91.8748 26.9574 91.908 27.0126 91.9366 27.0702V27.1776C91.9339 27.2188 91.9416 27.26 91.9589 27.2976C91.9762 27.3351 92.0026 27.3676 92.0357 27.3923C92.0357 27.3923 92.0357 27.4584 92.0357 27.4584L92.1349 27.954C92.2393 28.2391 92.2733 28.5451 92.234 28.8461C92.178 29.058 92.0745 29.2544 91.9314 29.4204C91.7883 29.5864 91.6093 29.7177 91.408 29.8043C91.0299 30.0108 90.596 30.0918 90.1689 30.0356C89.6981 30.0356 89.6238 29.9695 89.5659 29.8869C89.5081 29.8043 89.5081 29.7796 89.5659 29.5648C89.6238 29.35 89.7146 29.3418 89.822 29.3418C89.9294 29.3418 89.8963 29.3418 89.9872 29.4574L90.1607 29.6639H90.4911C90.6934 29.6729 90.8946 29.6298 91.0754 29.5387C91.2562 29.4476 91.4105 29.3115 91.5236 29.1435C91.6091 29.0022 91.6467 28.8371 91.631 28.6727C91.631 28.491 91.631 28.3258 91.4988 28.2597C91.3667 28.1936 91.2675 28.2597 91.218 28.334C90.8949 28.5228 90.5265 28.6199 90.1524 28.6149C89.9372 28.6181 89.7235 28.5773 89.5246 28.4949C89.3258 28.4125 89.1458 28.2903 88.996 28.1358C88.8666 27.9995 88.7929 27.8198 88.7895 27.6319V27.5576C88.9063 27.203 89.1047 26.8808 89.3687 26.6169C89.6326 26.3529 89.9548 26.1545 90.3094 26.0377C90.5978 25.9547 90.9033 25.9518 91.1932 26.0294V26.0294Z" fill="white"/>
<path d="M84.3289 26.5829C84.2359 26.6336 84.1574 26.7073 84.101 26.7969C84.0446 26.8866 84.0122 26.9892 84.0067 27.095C84.0191 27.5513 84.1027 28.0028 84.2545 28.4332C84.3831 28.8605 84.658 29.229 85.031 29.474C85.3192 29.6414 85.6476 29.727 85.9809 29.7218C86.3119 29.7534 86.6439 29.6718 86.9226 29.4905H86.9887C87.3668 29.2539 87.6569 28.8999 87.8147 28.4827C87.9579 28.0533 87.9751 27.5918 87.8643 27.1528C87.8195 27.0224 87.7364 26.9084 87.6259 26.8259C87.5154 26.7434 87.3825 26.6961 87.2447 26.6903C87.1406 26.6939 87.0397 26.7268 86.9535 26.7853C86.8673 26.8437 86.7993 26.9253 86.7574 27.0207C86.7228 27.0884 86.7098 27.1651 86.7201 27.2404C86.7304 27.3157 86.7636 27.3861 86.8152 27.4419C86.8698 27.6532 86.8698 27.8749 86.8152 28.0862C86.7932 28.2419 86.7273 28.388 86.6252 28.5075C86.5544 28.6075 86.4634 28.6915 86.3581 28.7541C86.2529 28.8167 86.1356 28.8565 86.014 28.871C85.9173 28.8746 85.8211 28.8565 85.7325 28.8178C85.6438 28.7792 85.565 28.7212 85.5018 28.6479C85.2129 28.2215 85.0603 27.7175 85.064 27.2024C85.0851 27.1003 85.0786 26.9945 85.0453 26.8958C85.0119 26.797 84.9528 26.709 84.874 26.6407C84.7954 26.586 84.7042 26.552 84.6089 26.5419C84.5136 26.5318 84.4173 26.5459 84.3289 26.5829V26.5829ZM84.7419 26.8224C84.783 26.8641 84.8128 26.9155 84.8287 26.9718C84.8446 27.0281 84.846 27.0876 84.8327 27.1446C84.8228 27.7333 84.996 28.3106 85.3284 28.7966C85.4193 28.896 85.5305 28.9747 85.6545 29.0274C85.7785 29.0802 85.9123 29.1057 86.047 29.1023C86.2106 29.0922 86.3698 29.0454 86.5128 28.9653C86.6558 28.8852 86.779 28.7739 86.873 28.6397C87.0036 28.488 87.0869 28.3013 87.1126 28.1028C87.1739 27.8257 87.1449 27.5362 87.03 27.2767C87.0158 27.2561 87.0082 27.2316 87.0082 27.2065C87.0082 27.1815 87.0158 27.157 87.03 27.1363C87.0504 27.0868 87.0846 27.0441 87.1285 27.0134C87.1724 26.9826 87.2242 26.9651 87.2778 26.9629C87.359 26.9692 87.4367 26.9981 87.5024 27.0463C87.5681 27.0944 87.619 27.1599 87.6495 27.2354C87.7558 27.6192 87.7558 28.0246 87.6495 28.4084C87.4953 28.7528 87.2385 29.0413 86.9143 29.2344H86.84C86.6121 29.3826 86.3432 29.4548 86.0718 29.4409C85.7305 29.4851 85.384 29.4215 85.0805 29.2592C84.7655 29.0435 84.5349 28.7253 84.428 28.3588C84.3156 27.9824 84.2463 27.5945 84.2215 27.2024C84.2169 27.1834 84.2169 27.1636 84.2215 27.1446C84.2215 26.9133 84.3371 26.8555 84.3949 26.8307C84.4463 26.7973 84.506 26.7788 84.5672 26.7773C84.6285 26.7759 84.689 26.7915 84.7419 26.8224V26.8224Z" fill="white"/>
<path d="M100.461 25.856L100.246 26.0707C100.231 26.1248 100.231 26.1819 100.246 26.236C100.255 26.3323 100.277 26.4268 100.312 26.5168C100.425 26.8517 100.598 27.1626 100.825 27.4337L100.899 27.5328C100.899 27.6898 101.642 28.111 101.725 28.1441L101.841 28.1936L101.725 28.4745C101.543 28.8213 101.399 29.1869 101.295 29.5648L101.205 29.8705C101.167 29.9735 101.15 30.083 101.155 30.1926C101.149 30.3111 101.169 30.4294 101.213 30.5395C101.242 30.5929 101.283 30.6387 101.334 30.6732C101.384 30.7076 101.442 30.7297 101.502 30.7378C101.593 30.7483 101.685 30.7374 101.771 30.7058C101.857 30.6743 101.935 30.623 101.998 30.5561C102.138 30.4156 102.179 30.2917 102.336 29.73L102.485 29.3418L102.584 29.061C102.584 28.9701 103.121 28.0119 103.195 27.921L103.443 27.5493L103.765 27.0785C104.046 26.7068 104.071 26.6737 104.005 26.459C103.977 26.3529 103.913 26.2597 103.824 26.1951C103.735 26.1304 103.627 26.0982 103.517 26.1038C103.278 26.1038 103.237 26.1038 103.063 26.3186L102.361 27.2933L102.262 27.4172C101.821 27.167 101.491 26.76 101.337 26.2773C101.315 26.1623 101.26 26.056 101.18 25.9711C101.099 25.8862 100.996 25.8261 100.882 25.7982H100.717L100.461 25.856ZM100.585 26.0873H100.659L100.825 26.1286C100.891 26.1469 100.95 26.184 100.995 26.2353C101.041 26.2866 101.07 26.3499 101.081 26.4177C101.169 26.7013 101.313 26.9644 101.504 27.1914C101.696 27.4184 101.931 27.6047 102.196 27.7393C102.378 27.7806 102.452 27.6732 102.567 27.508L103.253 26.5333L103.377 26.3929H103.476C103.683 26.3929 103.724 26.4672 103.749 26.5664C103.773 26.6655 103.749 26.649 103.55 26.9546L103.212 27.4502L102.997 27.7806C102.731 28.1962 102.504 28.636 102.32 29.094C102.289 29.1474 102.261 29.2025 102.237 29.2592L102.08 29.6887C101.923 30.2174 101.89 30.2835 101.808 30.3743C101.772 30.4102 101.729 30.4382 101.683 30.4567C101.636 30.4752 101.585 30.4837 101.535 30.4817C101.514 30.4807 101.494 30.4741 101.476 30.4624C101.459 30.4508 101.445 30.4346 101.436 30.4156C101.403 30.2772 101.403 30.1328 101.436 29.9944L101.551 29.6309C101.644 29.269 101.78 28.9196 101.956 28.5901C102.146 28.1936 102.13 28.1275 102.113 28.0945C102.097 28.0615 102.113 27.9871 101.808 27.8963C101.551 27.7784 101.315 27.6224 101.105 27.4337C101.105 27.4832 100.982 27.252 100.982 27.252C100.782 27.0063 100.628 26.7264 100.527 26.4259C100.461 26.2442 100.461 26.236 100.527 26.1864L100.585 26.0873Z" fill="white"/>
<path d="M127.117 26.3184L126.96 26.6075L127.117 26.9462L127.266 27.1362L127.613 27.541L128.034 27.9622L128.125 28.0448C128.083 28.1192 127.819 28.6643 127.819 28.6643L127.687 28.9039L127.571 29.1021L127.266 29.5978C127.174 29.7168 127.119 29.8606 127.109 30.0108C127.109 30.0818 127.128 30.1515 127.164 30.2125C127.201 30.2735 127.253 30.3237 127.315 30.3577C127.422 30.4362 127.551 30.4785 127.683 30.4785C127.815 30.4785 127.944 30.4362 128.05 30.3577L128.191 30.1099L128.249 30.0356L128.397 29.8043L128.529 29.573L128.786 29.0939C128.911 28.8036 129.066 28.5268 129.248 28.2679L129.356 28.0779V28.1357C129.405 28.0696 129.876 27.5079 129.967 27.4253C130.036 27.3548 130.083 27.266 130.104 27.1695C130.124 27.073 130.117 26.9726 130.082 26.8801C130.025 26.7725 129.938 26.6843 129.83 26.6269C129.723 26.5695 129.601 26.5455 129.479 26.558C129.306 26.558 129.166 26.7397 128.893 27.0701L128.744 27.2353C128.47 26.9923 128.228 26.7146 128.026 26.4093C127.992 26.3471 127.945 26.2933 127.888 26.2519C127.831 26.2104 127.765 26.1823 127.695 26.1698C127.594 26.1438 127.488 26.1439 127.387 26.1698C127.286 26.1958 127.193 26.247 127.117 26.3184V26.3184ZM127.456 30.1429C127.381 30.0934 127.282 30.0356 127.456 29.7382L127.778 29.2095L127.86 29.0691L128.026 28.78L128.414 28.0035L128.191 27.7722L127.77 27.351L127.472 27.0206L127.274 26.7645L127.191 26.6158L127.266 26.5167C127.332 26.4506 127.381 26.4341 127.613 26.4671C127.679 26.4671 127.695 26.4671 127.761 26.591C127.827 26.7149 128.488 27.541 128.703 27.541C128.703 27.541 128.835 27.541 129.058 27.2601C129.281 26.9793 129.405 26.8554 129.488 26.8388C129.549 26.8378 129.609 26.8516 129.664 26.8789C129.718 26.9062 129.766 26.9463 129.802 26.9958C129.815 27.0406 129.818 27.088 129.809 27.1341C129.801 27.1801 129.781 27.2234 129.752 27.2601C129.497 27.5102 129.27 27.7872 129.075 28.0861C128.858 28.3369 128.675 28.6145 128.529 28.9122L128.282 29.3747L128.141 29.6308L128.026 29.8043L127.91 30.0438L127.844 30.1016C127.79 30.1447 127.725 30.1715 127.656 30.1788C127.587 30.1862 127.518 30.1737 127.456 30.1429V30.1429Z" fill="white"/>
<path d="M36.2212 7.78251C36.1935 6.33309 35.6007 4.95184 34.5692 3.93323C33.5585 2.84027 32.1841 2.1531 30.7034 2.00033H30.2656C29.0752 1.98609 27.9249 2.42965 27.0523 3.23937C26.3857 3.86744 25.9006 4.66355 25.6481 5.54398C23.2552 4.58555 20.7007 4.09485 18.123 4.09844V4.09844C15.5371 4.08469 12.9731 4.5728 10.5731 5.53572C10.3223 4.65693 9.83686 3.86306 9.16888 3.23937C8.29628 2.42965 7.14597 1.98609 5.95564 2.00033H5.51785C4.04049 2.14651 2.66661 2.82465 1.65205 3.90845C0.614585 4.93315 0.0212753 6.32446 0 7.78251C0.0247654 8.65433 0.291199 9.50213 0.769593 10.2314C1.24799 10.9606 1.91954 11.5427 2.70936 11.9126C1.43827 13.9286 0.759872 16.2615 0.751683 18.6447C0.702716 20.6503 1.1511 22.6368 2.0568 24.4269C2.98422 26.116 4.37393 27.5057 6.06303 28.4331C8.94585 30.0852 12.9356 30.9112 18.2634 30.9112H18.3295C24.0208 30.9112 28.1592 29.9613 30.9842 28.0201C33.9496 25.9881 35.453 22.8409 35.4613 18.6695C35.4568 16.278 34.7783 13.9361 33.5036 11.9126C34.295 11.5439 34.9682 10.9623 35.4481 10.233C35.928 9.50363 36.1957 8.65521 36.2212 7.78251ZM27.0523 6.13046C27.056 6.10859 27.056 6.08625 27.0523 6.06438V5.97351V5.90743V5.82483V5.75875C27.0503 5.73125 27.0503 5.70364 27.0523 5.67614V5.61006C27.0492 5.58538 27.0492 5.5604 27.0523 5.53572V5.46964C27.0554 5.44496 27.0554 5.41998 27.0523 5.3953C27.0553 5.37337 27.0553 5.35114 27.0523 5.32921V5.25487V5.19705V5.12271V5.06489C27.0612 5.04013 27.0752 5.01759 27.0936 4.9988C27.0911 4.97685 27.0911 4.95468 27.0936 4.93272L27.1349 4.8749V4.80882L27.1845 4.751V4.69317L27.2341 4.63535L27.2836 4.57753L27.9114 4.47841H27.961L28.0188 4.42885L28.0849 4.3545C28.0849 4.3545 28.1262 4.3545 28.1427 4.29668H28.2005L28.2583 4.24712L28.3657 4.15626L28.4318 4.11496H28.4896H28.5557L28.6218 4.07366H28.6796H28.7457C28.7675 4.07811 28.79 4.07811 28.8118 4.07366H28.8861H28.9522H29.0183H29.0926H29.167H29.2413H29.3074H29.39H29.4561H29.5387H29.613H29.6956H29.7699H30.596L31.0172 4.13148H31.1825L31.389 3.65238L31.7194 3.75977L31.8515 3.80933L32.2893 4.01583L32.4215 4.09018L32.6445 4.2306C32.7838 4.31678 32.9164 4.41342 33.041 4.51971C33.1484 4.60231 33.2475 4.69317 33.3466 4.78404L33.5614 5.00706L33.7596 5.23009C34.3599 5.94544 34.6902 6.84868 34.6931 7.78251C34.6878 7.985 34.6657 8.18669 34.627 8.38551C34.627 8.45985 34.5857 8.53419 34.5692 8.61679C34.5351 8.72953 34.4938 8.8399 34.4453 8.9472L34.3461 9.16197C34.2544 9.33682 34.1465 9.50274 34.024 9.65759L33.867 9.79801C33.7302 9.94543 33.581 10.0808 33.421 10.2028C33.2543 10.3299 33.0775 10.4432 32.8923 10.5414L32.595 10.6819C32.5555 10.6233 32.5113 10.568 32.4628 10.5167V10.5167L32.0911 10.0871C31.5241 9.43776 30.9053 8.83553 30.2408 8.28638V8.28638L30.3977 8.11292C30.5317 7.97688 30.6882 7.86509 30.8603 7.78251H31.0503H31.1577C31.3164 7.7574 31.4763 7.74086 31.6368 7.73295H31.7607C31.8204 7.72414 31.8787 7.70747 31.9341 7.68339H32.0167L32.0993 7.62556C32.1606 7.56537 32.2011 7.48726 32.215 7.40254C32.2471 7.36748 32.2748 7.32865 32.2976 7.28689L32.3471 7.16299C32.3704 7.05227 32.3707 6.93795 32.348 6.82712C32.3252 6.71629 32.28 6.61131 32.215 6.51869L32.1324 6.44435C32.1087 6.41792 32.0808 6.39559 32.0498 6.37827L31.9589 6.3287H31.8598H31.7689H31.6615H31.5459H31.1494C30.5783 6.4447 30.0565 6.73299 29.6543 7.15473C29.6543 7.15473 29.4395 7.39428 29.3074 7.55948L29.1835 7.47688L28.9109 7.24559C28.3306 6.86522 27.7294 6.51774 27.1101 6.2048V6.2048C27.0971 6.17574 27.0773 6.15023 27.0523 6.13046V6.13046ZM2.58546 10.0458C2.52372 9.99502 2.46574 9.93981 2.41199 9.88061L2.32939 9.79801C2.24679 9.70715 2.17245 9.61629 2.0981 9.51716L1.96594 9.31892L1.8503 9.12067C1.77214 8.98051 1.70583 8.83407 1.65205 8.68288C1.65033 8.65813 1.65033 8.63329 1.65205 8.60853C1.65205 8.52593 1.60249 8.45159 1.58597 8.37725C1.56945 8.3029 1.58597 8.2203 1.58597 8.1377C1.5775 8.0167 1.5775 7.89525 1.58597 7.77425C1.58004 6.85605 1.89565 5.96473 2.47808 5.25487C2.56068 5.15575 2.65154 5.05663 2.75066 4.9575C2.88917 4.80923 3.03824 4.6712 3.19672 4.54449C3.32418 4.43809 3.45948 4.34144 3.60147 4.25538L3.81624 4.11496L3.9484 4.04061C4.08882 3.96627 4.23751 3.90019 4.39445 3.83411L4.51836 3.78455L4.80747 3.65238H5.05527H5.22048L5.64175 3.59456H6.46778H6.54212H6.6082H6.68254H6.76515H6.83123H6.91383H6.97991H7.06252H7.1286H7.20294H7.26902L7.34336 3.63586H7.40945H7.47553H7.54161L7.60769 3.67716H7.66551L7.73986 3.72673H7.78942L7.88028 3.79281L7.9381 3.83411L8.02897 3.90845L8.09505 3.96627H8.14461C8.09428 4.05012 8.07821 4.15014 8.09975 4.24553C8.12129 4.34091 8.17878 4.42433 8.26025 4.47841L8.30981 4.52797L8.35937 4.58579L8.40894 4.64361L8.4585 4.70143V4.75926L8.50806 4.81708L8.54936 4.88316L8.59892 4.94098C8.59892 4.94098 8.59892 4.98228 8.59892 5.00706L8.64848 5.07315V5.13097L8.68979 5.20531V5.26313L8.73109 5.33747C8.72814 5.3594 8.72814 5.38163 8.73109 5.40356C8.72798 5.42824 8.72798 5.45322 8.73109 5.4779V5.54398C8.7342 5.56866 8.7342 5.59364 8.73109 5.61832V5.6844V5.76701V5.83309V5.91569V5.98177V6.07264C8.72739 6.09451 8.72739 6.11685 8.73109 6.13872C8.73109 6.13872 8.73109 6.13872 8.73109 6.18828C8.15169 6.56611 7.59457 6.97705 7.06252 7.41906V7.41906L6.6908 7.04735C6.2905 6.62749 5.77192 6.33939 5.20396 6.22132H4.79921H4.68356H4.57618H4.48532H4.38619L4.30359 6.27088C4.2726 6.28821 4.24469 6.31054 4.22099 6.33696V6.33696L4.14665 6.41131C4.07647 6.50141 4.02681 6.60575 4.00113 6.71703C3.97545 6.82831 3.97437 6.94386 3.99796 7.05561L4.04752 7.17951C4.07027 7.22126 4.09801 7.2601 4.13013 7.29515C4.11227 7.36283 4.11227 7.43398 4.13013 7.50166L4.21273 7.55948H4.29533C4.35072 7.58357 4.40904 7.60024 4.4688 7.60904H4.5927C4.75317 7.61696 4.9131 7.6335 5.07179 7.6586H5.17918L5.3609 7.78251C5.51717 7.864 5.65939 7.96997 5.78218 8.0964C5.83764 8.15129 5.89003 8.2092 5.93912 8.26986V8.26986C5.64175 8.51767 5.35264 8.77374 5.1131 9.02155C4.97267 9.15371 4.84051 9.27761 4.72486 9.40152L4.29533 9.86409L4.15491 10.021C3.9897 10.211 3.83276 10.401 3.68407 10.5993L3.3041 10.5414C3.04612 10.4047 2.80494 10.2384 2.58546 10.0458V10.0458ZM33.5944 15.9023C33.644 16.0675 33.677 16.2327 33.7183 16.398C33.7596 16.5632 33.7844 16.7284 33.8092 16.9018C33.834 17.0753 33.8836 17.4057 33.9083 17.6618C33.9331 17.9178 33.9496 18.1739 33.9496 18.43C33.9496 18.5126 33.9496 18.5952 33.9496 18.686C33.9496 18.7769 33.9496 18.8512 33.9496 18.9338V19.0247C33.9496 19.1073 33.9496 19.1982 33.9496 19.2808V19.3469C33.9496 19.4212 33.9496 19.4955 33.9496 19.5699C33.9537 19.6028 33.9537 19.6361 33.9496 19.669C33.954 19.7433 33.954 19.8178 33.9496 19.892C33.9537 19.9277 33.9537 19.9637 33.9496 19.9994V20.239C33.9536 20.2636 33.9536 20.2887 33.9496 20.3133C33.9496 20.3959 33.9496 20.4785 33.9496 20.5611C33.9532 20.583 33.9532 20.6053 33.9496 20.6272C33.9496 20.7098 33.9496 20.7924 33.9496 20.875C33.9456 20.8941 33.9456 20.9138 33.9496 20.9328L33.9001 21.1889V21.2302C33.9001 21.3211 33.9001 21.4037 33.8423 21.4863V21.5276C33.8423 21.6102 33.801 21.701 33.7844 21.7836L33.7101 22.048L33.6357 22.3123L33.5531 22.5684L33.454 22.8244C33.454 22.9153 33.3797 22.9979 33.3466 23.0805C33.3053 23.1631 33.2723 23.2457 33.231 23.3366L33.0658 23.667V23.7413L32.8923 24.0552C32.89 24.0716 32.89 24.0883 32.8923 24.1048L32.7189 24.3856C32.7165 24.402 32.7165 24.4187 32.7189 24.4352L32.5124 24.7243L32.4628 24.7904L32.2315 25.0795C32.1489 25.1786 32.058 25.286 31.9589 25.3851C31.7753 25.5949 31.5765 25.7909 31.3642 25.9716V25.9716L31.1577 26.1533L30.9429 26.3268L30.7281 26.5002L30.5051 26.6572L30.2738 26.8059L30.0425 26.9463L29.8112 27.0785L29.5717 27.2106L29.3322 27.3345L29.0926 27.4502H29.0513L28.8035 27.5576L28.5557 27.6567H28.4979L28.2501 27.7558H28.1922L27.9444 27.8384H27.8701L27.6223 27.921H27.5479L27.3001 27.9953H27.2175L26.9697 28.0614H26.8706L26.6311 28.1275H26.5237L26.2759 28.1936H26.1685L25.9207 28.2514H25.805L25.5572 28.301H25.4333L25.1855 28.3423H25.0451L24.8055 28.3918H24.6569H24.4173H24.2604H24.0208H23.8556H23.6161H23.4426H23.203H23.0213H22.7818H22.5835H22.3522H22.1705C22.1705 28.5983 22.0053 28.7635 21.6584 28.7635C21.3114 28.7635 21.171 28.6149 21.1545 28.4249H19.6264C19.5962 28.5813 19.5125 28.7224 19.3897 28.8238C19.2668 28.9252 19.1125 28.9807 18.9531 28.9807C18.7938 28.9807 18.6395 28.9252 18.5166 28.8238C18.3938 28.7224 18.3101 28.5813 18.2799 28.4249H17.3465C16.2727 28.4249 15.2649 28.3423 14.315 28.2514L13.489 28.1688C12.8364 28.0862 12.2087 27.9871 11.6139 27.8714L10.9201 27.7145C10.5731 27.6402 10.2427 27.5493 9.92056 27.4584C9.59841 27.3676 9.39191 27.3015 9.13584 27.2106L8.87977 27.1198L8.51632 26.9876L7.99592 26.7728C7.7316 26.6572 7.47553 26.5333 7.22772 26.4011L6.79819 26.1698L6.68254 26.1037L6.33561 25.889C5.95134 25.6385 5.58431 25.3626 5.237 25.063C5.08006 24.9308 4.93137 24.7904 4.79095 24.6499C4.65052 24.5095 4.48532 24.3361 4.34489 24.1708C3.84851 23.8002 3.3967 23.3733 2.99847 22.8988C2.92413 22.7088 2.84979 22.5188 2.79197 22.3206C2.66025 21.9149 2.55539 21.501 2.47808 21.0815C2.43677 20.8585 2.40373 20.6437 2.37895 20.4207C2.30466 19.8317 2.26879 19.2384 2.27157 18.6447V18.6447C2.27157 18.4713 2.27157 18.3061 2.27157 18.1409C2.27157 17.9757 2.27157 17.8187 2.27157 17.6535C2.27157 17.4883 2.32939 17.1496 2.37069 16.8936C2.37069 16.811 2.37069 16.7284 2.41199 16.6458C2.45329 16.5632 2.41199 16.431 2.47808 16.3153V16.2327C2.47808 16.1254 2.5359 16.018 2.56068 15.9023C2.58546 15.7867 2.60198 15.7454 2.62676 15.6628C2.76733 15.1713 2.94403 14.6909 3.15542 14.2255C3.43611 13.5855 3.77337 12.9718 4.16317 12.3917L4.26229 12.243C4.37793 12.0778 4.50184 11.9044 4.634 11.7392L4.79921 11.5244L5.20396 11.0866L5.32786 10.9544L5.59219 10.6736C5.63191 10.6229 5.67615 10.5759 5.72435 10.5332L5.80696 10.4506L6.07955 10.1862C6.09439 10.163 6.11412 10.1433 6.13737 10.1284V10.1284L6.54212 9.75671L6.69906 9.62454L6.93861 9.43456L7.43423 9.05459L7.59943 8.93068L7.69855 8.85634L7.92984 8.68288L8.26025 8.43507L8.34285 8.37725L8.69805 8.15422L9.08628 7.93945L9.17714 7.88989L9.54885 7.68339L10.1105 7.39428L10.6722 7.13821L10.887 7.03909L11.3248 6.86562L11.4817 6.8078L11.7626 6.70042L11.9608 6.63433L12.2087 6.55173L12.3904 6.48565L12.6217 6.41131L12.8447 6.34523L13.0677 6.27914L13.299 6.22132L13.522 6.13046H13.7616L13.9681 6.0809L14.2159 6.03134L14.4141 5.98177H14.6619H14.8685L15.108 5.94047H15.3228H15.5623H15.7771H16.0249H16.2397H16.4792H16.7022H16.9418H17.1648H18.6929H19.1555H19.2299H19.6511H19.7255H20.1715H20.2707L20.7332 5.99829L21.1958 6.07264H21.328L21.6666 6.13872H21.7988L22.2531 6.22958C22.5505 6.29566 22.8396 6.37001 23.137 6.45261C23.4343 6.53521 23.7152 6.61781 23.963 6.71694L24.2851 6.82432C24.599 6.93996 24.9212 7.06387 25.2351 7.19603H25.3094L25.6316 7.33646L25.9537 7.48514L26.3006 7.6586L26.9862 8.02206L27.6553 8.41855L27.9775 8.62506L28.184 8.75722L28.2831 8.83156L28.6218 9.07937C29.1024 9.4301 29.5604 9.81083 29.993 10.2193C30.3375 10.4918 30.6683 10.7813 30.9842 11.0866V11.0866C31.2238 11.3675 31.455 11.6566 31.6698 11.9126L31.835 12.1439C32.2419 12.7163 32.5958 13.3246 32.8923 13.9612C32.9667 14.1181 33.041 14.2751 33.1071 14.432C33.1732 14.589 33.2971 14.9111 33.3797 15.1589L33.454 15.3985C33.5036 15.5719 33.5531 15.7371 33.5944 15.9023Z" fill="white"/>
<path d="M19.5107 27.2933C19.6016 26.8555 19.8577 26.8224 20.0477 26.839C20.2376 26.8555 20.5268 26.9546 20.5268 27.4915C20.4748 27.8033 20.4748 28.1214 20.5268 28.4332C20.5714 28.5399 20.6466 28.631 20.7428 28.6951C20.8391 28.7592 20.9522 28.7933 21.0678 28.7933C21.1834 28.7933 21.2965 28.7592 21.3928 28.6951C21.489 28.631 21.5642 28.5399 21.6088 28.4332C21.654 28.1043 21.654 27.7708 21.6088 27.442C21.549 27.0727 21.549 26.6961 21.6088 26.3268C21.6274 26.2758 21.6495 26.2261 21.6749 26.1781C20.5083 26.3853 19.3241 26.4766 18.1395 26.4507C16.8756 26.4709 15.613 26.3574 14.3729 26.1121C14.4639 26.339 14.533 26.5741 14.5794 26.8142C14.6422 27.2719 14.6422 27.736 14.5794 28.1936C14.5298 28.7388 14.7941 29.0197 15.1163 29.0692C15.2061 29.0845 15.2983 29.0783 15.3852 29.0512C15.4722 29.024 15.5516 28.9767 15.6168 28.9131C15.682 28.8495 15.7313 28.7714 15.7606 28.6851C15.7899 28.5988 15.7984 28.5068 15.7854 28.4167C15.6945 27.3924 15.6284 26.7646 16.0993 26.6985C16.5701 26.6325 16.5453 27.0042 16.504 27.5246C16.4627 28.045 16.5866 28.4415 16.917 28.4828C17.4126 28.5571 17.5696 28.1936 17.4952 27.5989C17.4209 27.0042 17.8009 26.7729 17.9909 26.7729C18.1808 26.7729 18.5443 26.905 18.2469 28.5158C18.1808 28.8234 18.1808 29.1416 18.2469 29.4492V29.4492C18.2771 29.6056 18.3608 29.7467 18.4836 29.8481C18.6065 29.9496 18.7608 30.005 18.9201 30.005C19.0795 30.005 19.2338 29.9496 19.3566 29.8481C19.4795 29.7467 19.5632 29.6056 19.5933 29.4492V29.4492C19.6019 29.3862 19.6019 29.3223 19.5933 29.2592C19.6842 28.6975 19.4116 27.7724 19.5107 27.2933Z" fill="white"/>
<path d="M21.7162 26.1534C23.996 25.6991 26.3089 24.5014 26.3172 21.1973C26.3254 17.8932 22.567 15.2169 18.1147 15.2169C13.6625 15.2169 9.85449 17.8436 9.85449 21.0816C9.85449 24.3197 12.1591 25.5917 14.4472 26.0873C15.6873 26.3327 16.9499 26.4462 18.2139 26.426C19.3874 26.4497 20.5605 26.3584 21.7162 26.1534V26.1534ZM11.3661 21.0816C11.3661 18.7357 14.4555 16.7533 18.1147 16.7615C21.774 16.7698 24.7808 18.8431 24.7808 21.2138C24.7808 23.824 22.8726 24.8814 18.1726 24.8731C12.1343 24.8731 11.3579 22.8493 11.3661 21.0816Z" fill="white"/>
<path d="M18.1148 19.5947C18.9131 19.5947 19.5603 19.2433 19.5603 18.8099C19.5603 18.3765 18.9131 18.0252 18.1148 18.0252C17.3164 18.0252 16.6693 18.3765 16.6693 18.8099C16.6693 19.2433 17.3164 19.5947 18.1148 19.5947Z" fill="white"/>
<path d="M6.54213 16.0428C5.43525 15.985 4.89008 17.4553 4.89008 19.1899C4.89008 20.9246 5.39395 22.2958 6.35214 22.3371C7.50858 22.3949 7.90507 21.0155 7.90507 19.2808C7.90507 17.5462 7.76464 16.0428 6.54213 16.0428Z" fill="white"/>
<path d="M29.7369 16.0427C28.5061 16.1005 28.3822 17.5461 28.374 19.2807C28.3657 21.0154 28.7622 22.3949 29.9269 22.3453C30.8851 22.304 31.389 20.9411 31.3972 19.1981C31.4055 17.4552 30.8355 15.9932 29.7369 16.0427Z" fill="white"/>
<path d="M169.548 22.6993L173.4 16.3453L169.548 10.0993H171.258L174.354 15.1393L177.306 10.0993H178.998L175.146 16.4173L179.016 22.6993H177.306L174.192 17.6413L171.258 22.6993H169.548Z" fill="white"/>
</svg>
