<svg width="1297" height="400" viewBox="0 0 1297 400" fill="none" xmlns="http://www.w3.org/2000/svg">
<path d="M96.1499 118.08L141.52 3.68994H239.29C244.94 3.68994 250.2 6.49994 253.37 11.2199C256.58 15.9899 257.2 22.0199 255.03 27.3599L228.68 92.0399C222.2 107.96 206.99 118.24 189.94 118.24C189.94 118.25 96.1499 118.08 96.1499 118.08ZM190.88 75.6999L204.46 46.2299H164.98L151.57 75.6999H190.88Z" fill="url(#paint0_linear_203_33)"/>
<path d="M239.28 7.18994C248.9 7.18994 255.44 17.0499 251.78 26.0299L225.44 90.7199C219.52 105.26 205.5 114.74 189.94 114.74C189.92 114.74 189.9 114.74 189.87 114.74L101.29 114.59L143.88 7.18994H239.28ZM146.14 79.1999H193.12L209.93 42.7299H162.73L146.14 79.1999ZM239.28 0.189941H143.88H139.13L137.38 4.60994L94.79 112.01L91 121.57L101.29 121.59L189.87 121.74H189.95C208.43 121.74 224.91 110.6 231.93 93.3599L258.27 28.6699C260.88 22.2599 260.14 14.9999 256.28 9.25994C252.45 3.57994 246.1 0.189941 239.28 0.189941ZM167.24 49.7299H199L188.65 72.1999H157.03L167.24 49.7299Z" fill="#FF4E00"/>
<path d="M263 154.61C259.05 154.61 255.36 152.65 253.12 149.36C250.86 146.04 250.4 141.82 251.89 138.08L286.79 50.1701C289.08 44.4101 294.54 40.6801 300.7 40.6801H413.38L371.84 143.68C369.16 150.31 362.84 154.6 355.74 154.6H263V154.61ZM345.07 112.39L357.07 82.9201H317.45L305.63 112.39H345.07Z" fill="url(#paint1_linear_203_33)"/>
<path d="M408.18 44.2L368.58 142.39C366.45 147.67 361.37 151.12 355.73 151.12H263C257.01 151.12 252.91 145.01 255.14 139.39L290.04 51.4799C291.79 47.0799 296 44.2 300.69 44.2H408.18ZM300.44 115.89H347.42L362.27 79.4199H315.07L300.44 115.89ZM418.55 37.2H408.18H300.69C293.09 37.2 286.35 41.7899 283.53 48.8899L248.63 136.8C246.72 141.62 247.31 147.05 250.22 151.33C253.1 155.58 257.88 158.11 262.99 158.11H355.72C364.26 158.11 371.85 152.96 375.06 145L414.66 46.81L418.55 37.2ZM319.81 86.4199H351.86L342.71 108.89H310.79L319.81 86.4199Z" fill="#FF4E00"/>
<path d="M873.65 154.61C869.7 154.61 866.01 152.65 863.77 149.36C861.51 146.04 861.05 141.82 862.54 138.08L897.44 50.1701C899.73 44.4101 905.19 40.6801 911.35 40.6801H1024.03L982.49 143.68C979.81 150.31 973.49 154.6 966.39 154.6H873.65V154.61ZM955.72 112.39L967.72 82.9201H928.1L916.28 112.39H955.72Z" fill="url(#paint2_linear_203_33)"/>
<path d="M1018.84 44.2L979.24 142.39C977.11 147.67 972.03 151.12 966.39 151.12H873.66C867.67 151.12 863.57 145.01 865.8 139.39L900.7 51.4799C902.45 47.0799 906.66 44.2 911.35 44.2H1018.84ZM911.09 115.89H958.07L972.92 79.4199H925.72L911.09 115.89ZM1029.21 37.2H1018.84H911.35C903.75 37.2 897.01 41.7899 894.19 48.8899L859.29 136.8C857.38 141.62 857.97 147.05 860.88 151.33C863.76 155.58 868.54 158.11 873.65 158.11H966.38C974.92 158.11 982.51 152.96 985.72 145L1025.32 46.81L1029.21 37.2ZM930.46 86.4199H962.51L953.36 108.89H921.44L930.46 86.4199Z" fill="#FF4E00"/>
<path d="M423.2 118.06L464.37 14.24C466.92 7.82004 472.99 3.67004 479.85 3.67004H591.71L578.44 36.26H497.16L477.57 84.06H515.48L521.24 72.17H496.73L505.59 51.28C506.57 48.96 508.83 47.47 511.33 47.47L573.77 47.69L547.45 112.32C545.98 115.93 542.53 118.26 538.66 118.26L423.2 118.06Z" fill="url(#paint3_linear_203_33)"/>
<path d="M586.51 7.17005L576.09 32.76H494.82L472.36 87.56H517.68L525.14 72.17C525.92 70.56 524.76 68.68 522.98 68.68H502.02L508.81 52.66C509.24 51.64 510.23 50.98 511.33 50.98H511.34L568.58 51.18L544.22 111.01C543.29 113.28 541.1 114.77 538.67 114.77H538.66L428.35 114.58L467.63 15.54C469.63 10.49 474.47 7.18004 479.86 7.18004H586.51V7.17005ZM596.92 0.170044H586.51H479.86C471.56 0.170044 464.2 5.19005 461.12 12.95L421.84 111.99L418.05 121.55L428.34 121.57L538.65 121.76C543.98 121.76 548.7 118.57 550.71 113.64L575.07 53.81L578.98 44.21L568.61 44.17L511.37 43.97C507.42 43.97 503.9 46.3 502.37 49.92L495.58 65.94L491.45 75.67H502.02H515.65L513.28 80.56H482.78L499.51 39.76H576.08H580.79L582.57 35.4L592.99 9.81005L596.92 0.170044Z" fill="#FF4E00"/>
<path d="M571.76 154.43L613.49 49.2101C615.69 43.6501 620.95 40.0601 626.89 40.0601L725.05 40.3801L711.78 72.9701L645.72 72.6401L640.78 84.6901H683.65L674.67 109.96H630.29L624.41 122.45H691.02L683.27 145.77L683.23 145.86C681.12 151.17 676.08 154.6 670.41 154.6L571.76 154.43Z" fill="url(#paint4_linear_203_33)"/>
<path d="M626.89 43.5601C626.9 43.5601 626.91 43.5601 626.93 43.5601L719.86 43.8701L709.44 69.4601L643.38 69.1301L635.57 88.1901H678.7L672.21 106.46H628.08L618.9 125.95H686.17L679.98 144.58C678.41 148.53 674.62 151.12 670.41 151.12C670.4 151.12 670.4 151.12 670.39 151.12L576.91 150.94L616.74 50.5001C618.4 46.3101 622.42 43.5601 626.89 43.5601ZM626.89 36.5601C619.51 36.5601 612.97 41.0201 610.23 47.9201L570.4 148.36L566.61 157.92L576.9 157.94L670.38 158.12C677.53 158.12 683.84 153.82 686.49 147.17L686.56 146.98L686.62 146.79L692.81 128.17L695.87 118.96H686.17H629.93L632.51 113.47H672.2H677.14L678.79 108.81L685.28 90.5401L688.6 81.2001H678.68H645.98L648.05 76.1601L709.39 76.4701L714.12 76.4901L715.91 72.1101L726.33 46.5201L730.24 36.9101L719.87 36.8801L626.94 36.5701H626.93H626.89V36.5601Z" fill="#FF4E00"/>
<path d="M780.3 3.83997H821.56L793.01 75.81H847.59L834.27 109.54C832.22 114.73 827.31 118.09 821.76 118.09L734.95 118.1L780.3 3.83997Z" fill="url(#paint5_linear_203_33)"/>
<path d="M816.41 7.33997L787.86 79.31H842.45L831.02 108.26C829.51 112.09 825.84 114.6 821.76 114.6L740.1 114.61L782.68 7.33997H816.41ZM826.71 0.339966H816.4H782.68H777.93L776.18 4.75996L733.6 112.02L729.8 121.6H740.11L821.77 121.59C828.76 121.59 834.95 117.36 837.54 110.83L848.97 81.88L852.75 72.31H842.46H798.18L822.93 9.91997L826.71 0.339966Z" fill="#FF4E00"/>
<path d="M1032.9 118.22L1076.35 10.99C1078.19 6.44 1082.54 3.5 1087.42 3.5H1102.07C1109.33 3.5 1116.12 7.42 1119.8 13.74L1140.44 49.2L1158.99 3.5H1200.89L1158.41 110.34C1156.5 115.15 1151.94 118.25 1146.81 118.25H1131.41C1125.02 118.25 1119.13 115.01 1115.68 109.59L1092.48 73.21L1074.4 118.45L1032.9 118.22Z" fill="url(#paint6_linear_203_33)"/>
<path d="M1195.73 7L1155.15 109.04C1153.78 112.49 1150.47 114.74 1146.8 114.74H1131.4C1126.23 114.74 1121.42 112.09 1118.62 107.7L1091.76 65.57L1072.03 114.93L1038.09 114.74L1079.6 12.3C1080.9 9.09 1083.99 7 1087.42 7H1102.07C1108.12 7 1113.71 10.23 1116.77 15.5L1140.99 57.12L1161.34 7H1195.73ZM1206.05 0H1195.73H1161.35H1156.64L1154.87 4.37L1139.89 41.28L1122.84 11.98C1118.54 4.59 1110.59 0 1102.09 0H1087.44C1081.13 0 1075.51 3.8 1073.13 9.68L1031.62 112.12L1027.74 121.69L1038.07 121.75L1072.01 121.94L1076.78 121.97L1078.55 117.54L1093.22 80.85L1112.75 111.47C1116.85 117.91 1123.84 121.75 1131.43 121.75H1146.83C1153.41 121.75 1159.24 117.78 1161.69 111.63L1202.27 9.59L1206.05 0Z" fill="#FF4E00"/>
<path d="M943.83 394.94L987.28 287.71C989.12 283.16 993.47 280.22 998.35 280.22H1013C1020.26 280.22 1027.05 284.14 1030.73 290.46L1051.37 325.92L1069.92 280.22H1111.82L1069.34 387.06C1067.43 391.87 1062.87 394.97 1057.74 394.97H1042.34C1035.95 394.97 1030.06 391.73 1026.61 386.31L1003.41 349.93L985.33 395.17L943.83 394.94Z" fill="url(#paint7_linear_203_33)"/>
<path d="M1106.66 283.72L1066.08 385.76C1064.71 389.21 1061.4 391.46 1057.73 391.46H1042.33C1037.16 391.46 1032.35 388.81 1029.55 384.42L1002.69 342.29L982.96 391.65L949.02 391.46L990.53 289.02C991.83 285.81 994.92 283.72 998.35 283.72H1013C1019.05 283.72 1024.64 286.95 1027.7 292.22L1051.92 333.84L1072.27 283.72H1106.66ZM1116.98 276.72H1106.66H1072.28H1067.57L1065.8 281.09L1050.81 318L1033.76 288.7C1029.46 281.31 1021.51 276.72 1013.01 276.72H998.36C992.05 276.72 986.43 280.52 984.05 286.4L942.54 388.84L938.66 398.41L948.99 398.47L982.93 398.66L987.7 398.69L989.47 394.26L1004.14 357.57L1023.67 388.19C1027.77 394.63 1034.76 398.47 1042.35 398.47H1057.75C1064.33 398.47 1070.16 394.5 1072.61 388.35L1113.19 286.31L1116.98 276.72Z" fill="#FF4E00"/>
<path d="M651.41 244.37L574.06 244.38C569.67 244.38 565.73 247.08 564.1 251.2L551.8 282.35H610.55L579.83 359.8H616.13L646.88 282.34H687.91C692.3 282.34 696.24 279.64 697.87 275.52L710.17 244.37H651.41Z" fill="url(#paint8_linear_203_33)" stroke="#FF4E00" stroke-width="7" stroke-miterlimit="10"/>
<path d="M773.06 279.45H741.63C737.2 279.45 733.22 282.18 731.58 286.33L689.41 395.94H726.04L757.07 317.77L773.06 279.45Z" fill="url(#paint9_linear_203_33)" stroke="#FF4E00" stroke-width="7" stroke-miterlimit="10"/>
<path d="M98.35 396.09L116.91 341.89L86.66 366.54L71.72 338.14L50.7 396.09H4.96997L46.54 280.54H89.26L105.02 309.57L140.5 280.54H186.26L145.37 396.09H98.35Z" fill="url(#paint10_linear_203_33)"/>
<path d="M181.31 284.04L142.9 392.59H103.26L124.19 331.45L87.77 361.12L71.14 329.5L48.25 392.58H9.95996L49.01 284.03H87.1801L103.97 314.94L141.75 284.03H181.31V284.04ZM191.21 277.04H181.31H141.75H139.25L137.32 278.62L106.08 304.18L93.33 280.7L91.34 277.04H87.1801H49.01H44.09L42.42 281.67L3.37 390.22L0 399.59H9.95996H48.25H53.16L54.83 394.98L72.3201 346.79L81.5701 364.39L85.55 371.96L92.1801 366.56L109.63 352.34L96.62 390.33L93.45 399.6H103.25H142.89H147.84L149.49 394.94L187.9 286.39L191.21 277.04Z" fill="#FF4E00"/>
<path d="M281.65 360.05L291.14 333.8H258.06L247.21 360.05H202.99V356.55C202.99 355.77 202.99 354.8 235.6 264.1C236.22 262.01 242.22 244.5 268.7 244.5H369.92L329.58 360.05H281.65ZM304.01 299.07L311.05 279.36H277.65L270.61 299.07H304.01Z" fill="url(#paint11_linear_203_33)"/>
<path d="M364.99 248L327.09 356.55H286.64L296.13 330.31H255.73L244.88 356.55H206.49C206.49 355.4 238.93 265.17 238.93 265.17C238.93 265.17 243.51 248 268.7 248C293.89 248 364.99 248 364.99 248ZM265.64 302.57H306.48L316.02 275.85H275.18L265.64 302.57ZM374.84 241H364.98H268.69C240.39 241 233.27 259.81 232.28 262.96C231.56 264.97 223.78 286.6 216.11 308.08C199.49 354.62 199.49 354.84 199.49 356.55V363.55H206.49H244.87H249.55L251.34 359.22L260.4 337.3H286.15L280.05 354.16L276.66 363.54H286.64H327.09H332.06L333.7 358.85L371.6 250.3L374.84 241ZM280.12 282.86H306.09L301.55 295.58H275.58L280.12 282.86Z" fill="#FF4E00"/>
<path d="M870.89 360.05L880.38 333.8H847.3L836.45 360.05H792.23V356.55C792.23 355.77 792.23 354.8 824.84 264.1C825.46 262.01 831.46 244.5 857.94 244.5H959.16L918.82 360.05H870.89ZM893.25 299.07L900.29 279.36H866.89L859.85 299.07H893.25Z" fill="url(#paint12_linear_203_33)"/>
<path d="M954.23 248L916.33 356.55H875.88L885.37 330.31H844.97L834.12 356.55H795.74C795.74 355.4 828.18 265.17 828.18 265.17C828.18 265.17 832.75 248 857.94 248C883.13 248 954.23 248 954.23 248ZM854.89 302.57H895.73L905.27 275.85H864.43L854.89 302.57ZM964.09 241H954.23H857.94C829.64 241 822.52 259.81 821.53 262.96C820.81 264.97 813.03 286.6 805.36 308.08C788.73 354.62 788.73 354.84 788.73 356.55V363.55H795.73H834.11H838.79L840.58 359.22L849.64 337.3H875.39L869.29 354.16L865.9 363.54H875.88H916.33H921.3L922.94 358.85L960.84 250.3L964.09 241ZM869.36 282.86H895.33L890.79 295.58H864.82L869.36 282.86Z" fill="#FF4E00"/>
<path d="M456.09 396.09L435.86 356.24H421L406.5 396.09H358.96L401.23 281.3H502.14C504.07 281.3 513.45 281.64 518.31 288.34C521.43 292.65 521.86 298.37 519.58 305.35C513.18 324.94 509.71 336.1 509.67 336.21L509.63 336.33L509.58 336.45C509.29 337.19 502.81 353.17 483.97 355.85L504.39 396.08H456.09V396.09ZM468.32 325.19L471.66 315.4H435.74L432.4 325.19H468.32Z" fill="url(#paint13_linear_203_33)"/>
<path d="M502.21 284.8C503.62 284.8 522.5 285.15 516.25 304.26C509.76 324.11 506.33 335.17 506.33 335.17C506.33 335.17 499.46 352.73 478.47 352.73L498.7 392.58H458.25L438.02 352.73H418.56L404.06 392.58H363.99L403.68 284.79H502.14C502.12 284.8 502.15 284.8 502.21 284.8ZM427.52 328.69H470.83L476.55 311.9H433.24L427.52 328.69ZM502.21 277.8H502.13H403.67H398.79L397.1 282.38L357.41 390.17L353.94 399.59H363.98H404.05H408.95L410.63 394.98L423.46 359.73H433.72L452 395.75L453.95 399.58H458.25H498.7H510.1L504.94 389.41L489.17 358.35C506.41 353.65 512.55 338.48 512.85 337.72L512.94 337.49L513.01 337.25C513.04 337.14 516.51 325.99 522.9 306.44C526.2 296.35 523.76 289.91 521.14 286.29C515.28 278.21 504.34 277.8 502.21 277.8ZM438.25 318.9H466.77L465.82 321.69H437.3L438.25 318.9Z" fill="#FF4E00"/>
<path d="M1120.82 360.05L1133.81 326.17H1214.67L1217.1 319.43H1160.51C1160.13 319.42 1151.16 318.99 1146.49 311.95C1143.02 306.71 1142.95 299.55 1146.31 290.66L1156.54 263C1157.18 260.58 1162.3 244.89 1186.98 244.89H1291.94L1279.9 278.6H1198.87L1196.41 284.58H1252.04L1252.21 284.6C1252.65 284.64 1262.99 285.76 1267.62 293.02C1270.18 297.04 1270.49 301.93 1268.52 307.56L1257.46 340.35C1255.38 347.11 1246.14 360.07 1226.28 360.07H1120.82V360.05Z" fill="url(#paint14_linear_203_33)"/>
<path d="M1286.97 248.38L1277.43 275.1H1196.52L1191.18 288.08H1251.86C1251.86 288.08 1270.94 289.99 1265.22 306.4L1254.15 339.22C1254.15 339.22 1248.81 356.56 1226.29 356.56H1125.92L1136.22 329.68H1217.13L1222.09 315.94H1160.65C1160.65 315.94 1140.8 315.18 1149.58 291.9L1159.88 264.04C1159.88 264.04 1163.31 248.39 1186.98 248.39H1286.97V248.38ZM1296.9 241.38H1286.97H1186.98C1160.57 241.38 1154.27 258.25 1153.22 261.87L1143.02 289.46C1139.26 299.42 1139.45 307.65 1143.58 313.88C1147.75 320.16 1154.47 322.08 1158.05 322.67H1136.23H1131.42L1129.7 327.16L1119.4 354.04L1115.76 363.55H1125.94H1226.31C1252.75 363.55 1260.08 343.62 1260.81 341.44L1271.86 308.66C1274.75 300.34 1272.76 294.53 1270.59 291.12C1267.2 285.81 1261.54 283.28 1257.45 282.09H1277.46H1282.39L1284.05 277.44L1293.59 250.72L1296.9 241.38Z" fill="#FF4E00"/>
<defs>
<linearGradient id="paint0_linear_203_33" x1="176.225" y1="118.245" x2="176.225" y2="3.68865" gradientUnits="userSpaceOnUse">
<stop stop-color="#56A9FF"/>
<stop offset="0.0677" stop-color="#7DBDFF"/>
<stop offset="0.1411" stop-color="#A0CFFF"/>
<stop offset="0.2223" stop-color="#BDDEFF"/>
<stop offset="0.3115" stop-color="#D6EAFF"/>
<stop offset="0.4121" stop-color="#E8F3FF"/>
<stop offset="0.5306" stop-color="#F5FAFF"/>
<stop offset="0.6841" stop-color="#FDFEFF"/>
<stop offset="1" stop-color="white"/>
</linearGradient>
<linearGradient id="paint1_linear_203_33" x1="332.199" y1="154.613" x2="332.199" y2="40.6955" gradientUnits="userSpaceOnUse">
<stop stop-color="#56A9FF"/>
<stop offset="0.0677" stop-color="#7DBDFF"/>
<stop offset="0.1411" stop-color="#A0CFFF"/>
<stop offset="0.2223" stop-color="#BDDEFF"/>
<stop offset="0.3115" stop-color="#D6EAFF"/>
<stop offset="0.4121" stop-color="#E8F3FF"/>
<stop offset="0.5306" stop-color="#F5FAFF"/>
<stop offset="0.6841" stop-color="#FDFEFF"/>
<stop offset="1" stop-color="white"/>
</linearGradient>
<linearGradient id="paint2_linear_203_33" x1="942.853" y1="154.613" x2="942.853" y2="40.6955" gradientUnits="userSpaceOnUse">
<stop stop-color="#56A9FF"/>
<stop offset="0.0677" stop-color="#7DBDFF"/>
<stop offset="0.1411" stop-color="#A0CFFF"/>
<stop offset="0.2223" stop-color="#BDDEFF"/>
<stop offset="0.3115" stop-color="#D6EAFF"/>
<stop offset="0.4121" stop-color="#E8F3FF"/>
<stop offset="0.5306" stop-color="#F5FAFF"/>
<stop offset="0.6841" stop-color="#FDFEFF"/>
<stop offset="1" stop-color="white"/>
</linearGradient>
<linearGradient id="paint3_linear_203_33" x1="507.456" y1="118.264" x2="507.456" y2="3.67014" gradientUnits="userSpaceOnUse">
<stop stop-color="#56A9FF"/>
<stop offset="0.0677" stop-color="#7DBDFF"/>
<stop offset="0.1411" stop-color="#A0CFFF"/>
<stop offset="0.2223" stop-color="#BDDEFF"/>
<stop offset="0.3115" stop-color="#D6EAFF"/>
<stop offset="0.4121" stop-color="#E8F3FF"/>
<stop offset="0.5306" stop-color="#F5FAFF"/>
<stop offset="0.6841" stop-color="#FDFEFF"/>
<stop offset="1" stop-color="white"/>
</linearGradient>
<linearGradient id="paint4_linear_203_33" x1="648.407" y1="154.613" x2="648.407" y2="40.0608" gradientUnits="userSpaceOnUse">
<stop stop-color="#56A9FF"/>
<stop offset="0.0677" stop-color="#7DBDFF"/>
<stop offset="0.1411" stop-color="#A0CFFF"/>
<stop offset="0.2223" stop-color="#BDDEFF"/>
<stop offset="0.3115" stop-color="#D6EAFF"/>
<stop offset="0.4121" stop-color="#E8F3FF"/>
<stop offset="0.5306" stop-color="#F5FAFF"/>
<stop offset="0.6841" stop-color="#FDFEFF"/>
<stop offset="1" stop-color="white"/>
</linearGradient>
<linearGradient id="paint5_linear_203_33" x1="791.27" y1="118.096" x2="791.27" y2="3.83807" gradientUnits="userSpaceOnUse">
<stop stop-color="#56A9FF"/>
<stop offset="0.0677" stop-color="#7DBDFF"/>
<stop offset="0.1411" stop-color="#A0CFFF"/>
<stop offset="0.2223" stop-color="#BDDEFF"/>
<stop offset="0.3115" stop-color="#D6EAFF"/>
<stop offset="0.4121" stop-color="#E8F3FF"/>
<stop offset="0.5306" stop-color="#F5FAFF"/>
<stop offset="0.6841" stop-color="#FDFEFF"/>
<stop offset="1" stop-color="white"/>
</linearGradient>
<linearGradient id="paint6_linear_203_33" x1="1116.9" y1="118.45" x2="1116.9" y2="3.4973" gradientUnits="userSpaceOnUse">
<stop stop-color="#56A9FF"/>
<stop offset="0.0677" stop-color="#7DBDFF"/>
<stop offset="0.1411" stop-color="#A0CFFF"/>
<stop offset="0.2223" stop-color="#BDDEFF"/>
<stop offset="0.3115" stop-color="#D6EAFF"/>
<stop offset="0.4121" stop-color="#E8F3FF"/>
<stop offset="0.5306" stop-color="#F5FAFF"/>
<stop offset="0.6841" stop-color="#FDFEFF"/>
<stop offset="1" stop-color="white"/>
</linearGradient>
<linearGradient id="paint7_linear_203_33" x1="1027.83" y1="395.176" x2="1027.83" y2="280.222" gradientUnits="userSpaceOnUse">
<stop stop-color="#56A9FF"/>
<stop offset="0.0677" stop-color="#7DBDFF"/>
<stop offset="0.1411" stop-color="#A0CFFF"/>
<stop offset="0.2223" stop-color="#BDDEFF"/>
<stop offset="0.3115" stop-color="#D6EAFF"/>
<stop offset="0.4121" stop-color="#E8F3FF"/>
<stop offset="0.5306" stop-color="#F5FAFF"/>
<stop offset="0.6841" stop-color="#FDFEFF"/>
<stop offset="1" stop-color="white"/>
</linearGradient>
<linearGradient id="paint8_linear_203_33" x1="630.98" y1="359.797" x2="630.98" y2="244.366" gradientUnits="userSpaceOnUse">
<stop stop-color="#56A9FF"/>
<stop offset="0.0677" stop-color="#7DBDFF"/>
<stop offset="0.1411" stop-color="#A0CFFF"/>
<stop offset="0.2223" stop-color="#BDDEFF"/>
<stop offset="0.3115" stop-color="#D6EAFF"/>
<stop offset="0.4121" stop-color="#E8F3FF"/>
<stop offset="0.5306" stop-color="#F5FAFF"/>
<stop offset="0.6841" stop-color="#FDFEFF"/>
<stop offset="1" stop-color="white"/>
</linearGradient>
<linearGradient id="paint9_linear_203_33" x1="731.23" y1="395.938" x2="731.23" y2="279.447" gradientUnits="userSpaceOnUse">
<stop stop-color="#56A9FF"/>
<stop offset="0.0677" stop-color="#7DBDFF"/>
<stop offset="0.1411" stop-color="#A0CFFF"/>
<stop offset="0.2223" stop-color="#BDDEFF"/>
<stop offset="0.3115" stop-color="#D6EAFF"/>
<stop offset="0.4121" stop-color="#E8F3FF"/>
<stop offset="0.5306" stop-color="#F5FAFF"/>
<stop offset="0.6841" stop-color="#FDFEFF"/>
<stop offset="1" stop-color="white"/>
</linearGradient>
<linearGradient id="paint10_linear_203_33" x1="95.61" y1="396.089" x2="95.61" y2="280.54" gradientUnits="userSpaceOnUse">
<stop stop-color="#56A9FF"/>
<stop offset="0.0677" stop-color="#7DBDFF"/>
<stop offset="0.1411" stop-color="#A0CFFF"/>
<stop offset="0.2223" stop-color="#BDDEFF"/>
<stop offset="0.3115" stop-color="#D6EAFF"/>
<stop offset="0.4121" stop-color="#E8F3FF"/>
<stop offset="0.5306" stop-color="#F5FAFF"/>
<stop offset="0.6841" stop-color="#FDFEFF"/>
<stop offset="1" stop-color="white"/>
</linearGradient>
<linearGradient id="paint11_linear_203_33" x1="286.45" y1="360.048" x2="286.45" y2="244.498" gradientUnits="userSpaceOnUse">
<stop stop-color="#56A9FF"/>
<stop offset="0.0677" stop-color="#7DBDFF"/>
<stop offset="0.1411" stop-color="#A0CFFF"/>
<stop offset="0.2223" stop-color="#BDDEFF"/>
<stop offset="0.3115" stop-color="#D6EAFF"/>
<stop offset="0.4121" stop-color="#E8F3FF"/>
<stop offset="0.5306" stop-color="#F5FAFF"/>
<stop offset="0.6841" stop-color="#FDFEFF"/>
<stop offset="1" stop-color="white"/>
</linearGradient>
<linearGradient id="paint12_linear_203_33" x1="875.69" y1="360.048" x2="875.69" y2="244.498" gradientUnits="userSpaceOnUse">
<stop stop-color="#56A9FF"/>
<stop offset="0.0677" stop-color="#7DBDFF"/>
<stop offset="0.1411" stop-color="#A0CFFF"/>
<stop offset="0.2223" stop-color="#BDDEFF"/>
<stop offset="0.3115" stop-color="#D6EAFF"/>
<stop offset="0.4121" stop-color="#E8F3FF"/>
<stop offset="0.5306" stop-color="#F5FAFF"/>
<stop offset="0.6841" stop-color="#FDFEFF"/>
<stop offset="1" stop-color="white"/>
</linearGradient>
<linearGradient id="paint13_linear_203_33" x1="439.98" y1="396.089" x2="439.98" y2="281.303" gradientUnits="userSpaceOnUse">
<stop stop-color="#56A9FF"/>
<stop offset="0.0677" stop-color="#7DBDFF"/>
<stop offset="0.1411" stop-color="#A0CFFF"/>
<stop offset="0.2223" stop-color="#BDDEFF"/>
<stop offset="0.3115" stop-color="#D6EAFF"/>
<stop offset="0.4121" stop-color="#E8F3FF"/>
<stop offset="0.5306" stop-color="#F5FAFF"/>
<stop offset="0.6841" stop-color="#FDFEFF"/>
<stop offset="1" stop-color="white"/>
</linearGradient>
<linearGradient id="paint14_linear_203_33" x1="1206.38" y1="360.048" x2="1206.38" y2="244.88" gradientUnits="userSpaceOnUse">
<stop stop-color="#56A9FF"/>
<stop offset="0.0677" stop-color="#7DBDFF"/>
<stop offset="0.1411" stop-color="#A0CFFF"/>
<stop offset="0.2223" stop-color="#BDDEFF"/>
<stop offset="0.3115" stop-color="#D6EAFF"/>
<stop offset="0.4121" stop-color="#E8F3FF"/>
<stop offset="0.5306" stop-color="#F5FAFF"/>
<stop offset="0.6841" stop-color="#FDFEFF"/>
<stop offset="1" stop-color="white"/>
</linearGradient>
</defs>
</svg>
