<svg width="2464" height="159" viewBox="0 0 2464 159" fill="none" xmlns="http://www.w3.org/2000/svg">
<path d="M2110.32 154.28L2153.77 47.05C2155.61 42.5 2159.96 39.56 2164.84 39.56H2179.49C2186.75 39.56 2193.54 43.48 2197.22 49.8L2217.86 85.26L2236.41 39.56H2278.31L2235.83 146.4C2233.92 151.21 2229.36 154.31 2224.23 154.31H2208.83C2202.44 154.31 2196.55 151.07 2193.1 145.65L2169.9 109.27L2151.82 154.51L2110.32 154.28Z" fill="url(#paint0_linear_201_7)"/>
<path d="M2273.15 43.06L2232.57 145.1C2231.2 148.55 2227.89 150.8 2224.22 150.8H2208.82C2203.65 150.8 2198.84 148.15 2196.04 143.76L2169.18 101.63L2149.45 150.99L2115.51 150.8L2157.02 48.36C2158.32 45.15 2161.41 43.06 2164.84 43.06H2179.49C2185.54 43.06 2191.13 46.29 2194.19 51.56L2218.41 93.18L2238.76 43.06H2273.15V43.06ZM2283.47 36.06H2273.15H2238.77H2234.06L2232.29 40.43L2217.3 77.34L2200.25 48.04C2195.95 40.65 2188 36.06 2179.5 36.06H2164.85C2158.54 36.06 2152.92 39.86 2150.54 45.74L2109.03 148.18L2105.15 157.75L2115.48 157.81L2149.42 158L2154.19 158.03L2155.96 153.6L2170.63 116.91L2190.16 147.53C2194.26 153.97 2201.25 157.81 2208.84 157.81H2224.24C2230.82 157.81 2236.65 153.84 2239.1 147.69L2279.68 45.65L2283.47 36.06Z" fill="#FF4E00"/>
<path d="M5.1499 118.08L50.5199 3.69H148.29C153.94 3.69 159.2 6.5 162.37 11.22C165.58 15.99 166.2 22.02 164.03 27.36L137.68 92.04C131.2 107.96 115.99 118.24 98.9399 118.24C98.9399 118.25 5.1499 118.08 5.1499 118.08ZM99.8799 75.7L113.46 46.23H73.9799L60.5699 75.7H99.8799Z" fill="url(#paint1_linear_201_7)"/>
<path d="M148.28 7.19C157.9 7.19 164.44 17.05 160.78 26.03L134.44 90.72C128.52 105.26 114.5 114.74 98.94 114.74C98.92 114.74 98.9 114.74 98.87 114.74L10.29 114.59L52.88 7.19H148.28ZM55.14 79.2H102.12L118.93 42.73H71.73L55.14 79.2ZM148.28 0.190002H52.88H48.13L46.38 4.61L3.79 112.01L0 121.57L10.29 121.59L98.87 121.74H98.95C117.43 121.74 133.91 110.6 140.93 93.36L167.27 28.67C169.88 22.26 169.14 15 165.28 9.26C161.45 3.58 155.1 0.190002 148.28 0.190002ZM76.24 49.73H108L97.65 72.2H66.03L76.24 49.73Z" fill="#FF4E00"/>
<path d="M172 154.61C168.05 154.61 164.36 152.65 162.12 149.36C159.86 146.04 159.4 141.82 160.89 138.08L195.79 50.17C198.08 44.41 203.54 40.68 209.7 40.68H322.38L280.84 143.68C278.16 150.31 271.84 154.6 264.74 154.6H172V154.61ZM254.07 112.39L266.07 82.92H226.45L214.63 112.39H254.07Z" fill="url(#paint2_linear_201_7)"/>
<path d="M317.18 44.2L277.58 142.39C275.45 147.67 270.37 151.12 264.73 151.12H172C166.01 151.12 161.91 145.01 164.14 139.39L199.04 51.48C200.79 47.08 205 44.2 209.69 44.2H317.18V44.2ZM209.44 115.89H256.42L271.27 79.42H224.07L209.44 115.89ZM327.55 37.2H317.18H209.69C202.09 37.2 195.35 41.79 192.53 48.89L157.63 136.8C155.72 141.62 156.31 147.05 159.22 151.33C162.1 155.58 166.88 158.11 171.99 158.11H264.72C273.26 158.11 280.85 152.96 284.06 145L323.66 46.81L327.55 37.2ZM228.81 86.42H260.86L251.71 108.89H219.79L228.81 86.42Z" fill="#FF4E00"/>
<path d="M782.65 154.61C778.7 154.61 775.01 152.65 772.77 149.36C770.51 146.04 770.05 141.82 771.54 138.08L806.44 50.17C808.73 44.41 814.19 40.68 820.35 40.68H933.03L891.49 143.68C888.81 150.31 882.49 154.6 875.39 154.6H782.65V154.61ZM864.72 112.39L876.72 82.92H837.1L825.28 112.39H864.72Z" fill="url(#paint3_linear_201_7)"/>
<path d="M927.84 44.2L888.24 142.39C886.11 147.67 881.03 151.12 875.39 151.12H782.66C776.67 151.12 772.57 145.01 774.8 139.39L809.7 51.48C811.45 47.08 815.66 44.2 820.35 44.2H927.84V44.2ZM820.09 115.89H867.07L881.92 79.42H834.72L820.09 115.89ZM938.21 37.2H927.84H820.35C812.75 37.2 806.01 41.79 803.19 48.89L768.29 136.8C766.38 141.62 766.97 147.05 769.88 151.33C772.76 155.58 777.54 158.11 782.65 158.11H875.38C883.92 158.11 891.51 152.96 894.72 145L934.32 46.81L938.21 37.2ZM839.46 86.42H871.51L862.36 108.89H830.44L839.46 86.42Z" fill="#FF4E00"/>
<path d="M332.2 118.06L373.37 14.24C375.92 7.82 381.99 3.67 388.85 3.67H500.71L487.44 36.26H406.16L386.57 84.06H424.48L430.24 72.17H405.73L414.59 51.28C415.57 48.96 417.83 47.47 420.33 47.47L482.77 47.69L456.45 112.32C454.98 115.93 451.53 118.26 447.66 118.26L332.2 118.06Z" fill="url(#paint4_linear_201_7)"/>
<path d="M495.51 7.17L485.09 32.76H403.82L381.36 87.56H426.68L434.14 72.17C434.92 70.56 433.76 68.68 431.98 68.68H411.02L417.81 52.66C418.24 51.64 419.23 50.98 420.33 50.98H420.34L477.58 51.18L453.22 111.01C452.29 113.28 450.1 114.77 447.67 114.77H447.66L337.35 114.58L376.63 15.54C378.63 10.49 383.47 7.17999 388.86 7.17999H495.51V7.17ZM505.92 0.169998H495.51H388.86C380.56 0.169998 373.2 5.19 370.12 12.95L330.84 111.99L327.05 121.55L337.34 121.57L447.65 121.76C452.98 121.76 457.7 118.57 459.71 113.64L484.07 53.81L487.98 44.21L477.61 44.17L420.37 43.97C416.42 43.97 412.9 46.3 411.37 49.92L404.58 65.94L400.45 75.67H411.02H424.65L422.28 80.56H391.78L408.51 39.76H485.08H489.79L491.57 35.4L501.99 9.81L505.92 0.169998Z" fill="#FF4E00"/>
<path d="M480.76 154.43L522.49 49.21C524.69 43.65 529.95 40.06 535.89 40.06L634.05 40.38L620.78 72.97L554.72 72.64L549.78 84.69H592.65L583.67 109.96H539.29L533.41 122.45H600.02L592.27 145.77L592.23 145.86C590.12 151.17 585.08 154.6 579.41 154.6L480.76 154.43Z" fill="url(#paint5_linear_201_7)"/>
<path d="M535.89 43.56C535.9 43.56 535.91 43.56 535.93 43.56L628.86 43.87L618.44 69.46L552.38 69.13L544.57 88.19H587.7L581.21 106.46H537.08L527.9 125.95H595.17L588.98 144.58C587.41 148.53 583.62 151.12 579.41 151.12C579.4 151.12 579.4 151.12 579.39 151.12L485.91 150.94L525.74 50.5C527.4 46.31 531.42 43.56 535.89 43.56ZM535.89 36.56C528.51 36.56 521.97 41.02 519.23 47.92L479.4 148.36L475.61 157.92L485.9 157.94L579.38 158.12C586.53 158.12 592.84 153.82 595.49 147.17L595.56 146.98L595.62 146.79L601.81 128.17L604.87 118.96H595.17H538.93L541.51 113.47H581.2H586.14L587.79 108.81L594.28 90.54L597.6 81.2H587.68H554.98L557.05 76.16L618.39 76.47L623.12 76.49L624.91 72.11L635.33 46.52L639.24 36.91L628.87 36.88L535.94 36.57H535.93H535.89V36.56Z" fill="#FF4E00"/>
<path d="M689.3 3.84H730.56L702.01 75.81H756.59L743.27 109.54C741.22 114.73 736.31 118.09 730.76 118.09L643.95 118.1L689.3 3.84Z" fill="url(#paint6_linear_201_7)"/>
<path d="M725.41 7.34L696.86 79.31H751.45L740.02 108.26C738.51 112.09 734.84 114.6 730.76 114.6L649.1 114.61L691.68 7.34H725.41ZM735.71 0.339996H725.4H691.68H686.93L685.18 4.75999L642.6 112.02L638.8 121.6H649.11L730.77 121.59C737.76 121.59 743.95 117.36 746.54 110.83L757.97 81.88L761.75 72.31H751.46H707.18L731.93 9.92L735.71 0.339996Z" fill="#FF4E00"/>
<path d="M941.9 118.22L985.35 10.99C987.19 6.44 991.54 3.5 996.42 3.5H1011.07C1018.33 3.5 1025.12 7.42 1028.8 13.74L1049.44 49.2L1067.99 3.5H1109.89L1067.41 110.34C1065.5 115.15 1060.94 118.25 1055.81 118.25H1040.41C1034.02 118.25 1028.13 115.01 1024.68 109.59L1001.48 73.21L983.4 118.45L941.9 118.22Z" fill="url(#paint7_linear_201_7)"/>
<path d="M1104.73 7L1064.15 109.04C1062.78 112.49 1059.47 114.74 1055.8 114.74H1040.4C1035.23 114.74 1030.42 112.09 1027.62 107.7L1000.76 65.57L981.03 114.93L947.09 114.74L988.6 12.3C989.9 9.09 992.99 7 996.42 7H1011.07C1017.12 7 1022.71 10.23 1025.77 15.5L1049.99 57.12L1070.34 7H1104.73V7ZM1115.05 0H1104.73H1070.35H1065.64L1063.87 4.37L1048.89 41.28L1031.84 11.98C1027.54 4.59 1019.59 0 1011.09 0H996.44C990.13 0 984.51 3.8 982.13 9.68L940.62 112.12L936.74 121.69L947.07 121.75L981.01 121.94L985.78 121.97L987.55 117.54L1002.22 80.85L1021.75 111.47C1025.85 117.91 1032.84 121.75 1040.43 121.75H1055.83C1062.41 121.75 1068.24 117.78 1070.69 111.63L1111.27 9.59L1115.05 0Z" fill="#FF4E00"/>
<path d="M1817.9 3.71001L1740.55 3.72C1736.16 3.72 1732.22 6.42 1730.59 10.54L1718.29 41.69H1777.04L1746.32 119.14H1782.62L1813.37 41.68H1854.4C1858.79 41.68 1862.73 38.98 1864.36 34.86L1876.66 3.71001H1817.9Z" fill="url(#paint8_linear_201_7)" stroke="#FF4E00" stroke-width="7" stroke-miterlimit="10"/>
<path d="M1939.55 38.79H1908.12C1903.69 38.79 1899.71 41.52 1898.07 45.67L1855.9 155.28H1892.53L1923.56 77.11L1939.55 38.79Z" fill="url(#paint9_linear_201_7)" stroke="#FF4E00" stroke-width="7" stroke-miterlimit="10"/>
<path d="M1264.84 155.43L1283.4 101.23L1253.15 125.88L1238.21 97.48L1217.19 155.43H1171.46L1213.03 39.88H1255.75L1271.51 68.91L1306.99 39.88H1352.75L1311.86 155.43H1264.84Z" fill="url(#paint10_linear_201_7)"/>
<path d="M1347.8 43.38L1309.39 151.93H1269.75L1290.68 90.79L1254.26 120.46L1237.63 88.84L1214.74 151.92H1176.45L1215.5 43.37H1253.67L1270.46 74.28L1308.24 43.37H1347.8V43.38ZM1357.7 36.38H1347.8H1308.24H1305.74L1303.81 37.96L1272.57 63.52L1259.82 40.04L1257.83 36.38H1253.67H1215.5H1210.58L1208.91 41.01L1169.86 149.56L1166.49 158.93H1176.45H1214.74H1219.65L1221.32 154.32L1238.81 106.13L1248.06 123.73L1252.04 131.3L1258.67 125.9L1276.12 111.68L1263.11 149.67L1259.94 158.94H1269.74H1309.38H1314.33L1315.98 154.28L1354.39 45.73L1357.7 36.38Z" fill="#FF4E00"/>
<path d="M1448.14 119.39L1457.63 93.14H1424.55L1413.7 119.39H1369.48V115.89C1369.48 115.11 1369.48 114.14 1402.09 23.44C1402.71 21.35 1408.71 3.84 1435.19 3.84H1536.41L1496.07 119.39H1448.14ZM1470.5 58.41L1477.54 38.7H1444.14L1437.1 58.41H1470.5Z" fill="url(#paint11_linear_201_7)"/>
<path d="M1531.48 7.34L1493.58 115.89H1453.13L1462.62 89.65H1422.22L1411.37 115.89H1372.98C1372.98 114.74 1405.42 24.51 1405.42 24.51C1405.42 24.51 1410 7.34 1435.19 7.34C1460.38 7.34 1531.48 7.34 1531.48 7.34ZM1432.13 61.91H1472.97L1482.51 35.19H1441.67L1432.13 61.91ZM1541.33 0.339996H1531.47H1435.18C1406.88 0.339996 1399.76 19.15 1398.77 22.3C1398.05 24.31 1390.27 45.94 1382.6 67.42C1365.98 113.96 1365.98 114.18 1365.98 115.89V122.89H1372.98H1411.36H1416.04L1417.83 118.56L1426.89 96.64H1452.64L1446.54 113.5L1443.15 122.88H1453.13H1493.58H1498.55L1500.19 118.19L1538.09 9.64L1541.33 0.339996ZM1446.61 42.2H1472.58L1468.04 54.92H1442.07L1446.61 42.2Z" fill="#FF4E00"/>
<path d="M2037.38 119.39L2046.87 93.14H2013.79L2002.94 119.39H1958.72V115.89C1958.72 115.11 1958.72 114.14 1991.33 23.44C1991.95 21.35 1997.95 3.84 2024.43 3.84H2125.65L2085.31 119.39H2037.38ZM2059.74 58.41L2066.78 38.7H2033.38L2026.34 58.41H2059.74Z" fill="url(#paint12_linear_201_7)"/>
<path d="M2120.72 7.34L2082.82 115.89H2042.37L2051.86 89.65H2011.46L2000.61 115.89H1962.23C1962.23 114.74 1994.67 24.51 1994.67 24.51C1994.67 24.51 1999.24 7.34 2024.43 7.34C2049.62 7.34 2120.72 7.34 2120.72 7.34ZM2021.38 61.91H2062.22L2071.76 35.19H2030.92L2021.38 61.91ZM2130.58 0.339996H2120.72H2024.43C1996.13 0.339996 1989.01 19.15 1988.02 22.3C1987.3 24.31 1979.52 45.94 1971.85 67.42C1955.22 113.96 1955.22 114.18 1955.22 115.89V122.89H1962.22H2000.6H2005.28L2007.07 118.56L2016.13 96.64H2041.88L2035.78 113.5L2032.39 122.88H2042.37H2082.82H2087.79L2089.43 118.19L2127.33 9.64L2130.58 0.339996ZM2035.85 42.2H2061.82L2057.28 54.92H2031.31L2035.85 42.2Z" fill="#FF4E00"/>
<path d="M1622.58 155.43L1602.35 115.58H1587.49L1572.99 155.43H1525.45L1567.72 40.64H1668.63C1670.56 40.64 1679.94 40.98 1684.8 47.68C1687.92 51.99 1688.35 57.71 1686.07 64.69C1679.67 84.28 1676.2 95.44 1676.16 95.55L1676.12 95.67L1676.07 95.79C1675.78 96.53 1669.3 112.51 1650.46 115.19L1670.88 155.42H1622.58V155.43ZM1634.81 84.53L1638.15 74.74H1602.23L1598.89 84.53H1634.81Z" fill="url(#paint13_linear_201_7)"/>
<path d="M1668.7 44.14C1670.11 44.14 1688.99 44.49 1682.74 63.6C1676.25 83.45 1672.82 94.51 1672.82 94.51C1672.82 94.51 1665.95 112.07 1644.96 112.07L1665.19 151.92H1624.74L1604.51 112.07H1585.05L1570.55 151.92H1530.48L1570.17 44.13H1668.63C1668.61 44.14 1668.64 44.14 1668.7 44.14ZM1594.01 88.03H1637.32L1643.04 71.24H1599.73L1594.01 88.03ZM1668.7 37.14H1668.62H1570.16H1565.28L1563.59 41.72L1523.9 149.51L1520.43 158.93H1530.47H1570.54H1575.44L1577.12 154.32L1589.95 119.07H1600.21L1618.49 155.09L1620.44 158.92H1624.74H1665.19H1676.59L1671.43 148.75L1655.66 117.69C1672.9 112.99 1679.04 97.82 1679.34 97.06L1679.43 96.83L1679.5 96.59C1679.53 96.48 1683 85.33 1689.39 65.78C1692.69 55.69 1690.25 49.25 1687.63 45.63C1681.77 37.55 1670.83 37.14 1668.7 37.14ZM1604.74 78.24H1633.26L1632.31 81.03H1603.79L1604.74 78.24Z" fill="#FF4E00"/>
<path d="M2287.31 119.39L2300.3 85.51H2381.16L2383.59 78.77H2327C2326.62 78.76 2317.65 78.33 2312.98 71.29C2309.51 66.05 2309.44 58.89 2312.8 50L2323.03 22.34C2323.67 19.92 2328.79 4.23 2353.47 4.23H2458.43L2446.39 37.94H2365.36L2362.9 43.92H2418.53L2418.7 43.94C2419.14 43.98 2429.48 45.1 2434.11 52.36C2436.67 56.38 2436.98 61.27 2435.01 66.9L2423.95 99.69C2421.87 106.45 2412.63 119.41 2392.77 119.41H2287.31V119.39Z" fill="url(#paint14_linear_201_7)"/>
<path d="M2453.46 7.72L2443.92 34.44H2363.01L2357.67 47.42H2418.35C2418.35 47.42 2437.43 49.33 2431.71 65.74L2420.64 98.56C2420.64 98.56 2415.3 115.9 2392.78 115.9H2292.41L2302.71 89.02H2383.62L2388.58 75.28H2327.14C2327.14 75.28 2307.29 74.52 2316.07 51.24L2326.37 23.38C2326.37 23.38 2329.8 7.73 2353.47 7.73H2453.46V7.72ZM2463.39 0.720001H2453.46H2353.47C2327.06 0.720001 2320.76 17.59 2319.71 21.21L2309.51 48.8C2305.75 58.76 2305.94 66.99 2310.07 73.22C2314.24 79.5 2320.96 81.42 2324.54 82.01H2302.72H2297.91L2296.19 86.5L2285.89 113.38L2282.25 122.89H2292.43H2392.8C2419.24 122.89 2426.57 102.96 2427.3 100.78L2438.35 68C2441.24 59.68 2439.25 53.87 2437.08 50.46C2433.69 45.15 2428.03 42.62 2423.94 41.43H2443.95H2448.88L2450.54 36.78L2460.08 10.06L2463.39 0.720001Z" fill="#FF4E00"/>
<defs>
<linearGradient id="paint0_linear_201_7" x1="2194.32" y1="154.516" x2="2194.32" y2="39.562" gradientUnits="userSpaceOnUse">
<stop stop-color="#56A9FF"/>
<stop offset="0.0677" stop-color="#7DBDFF"/>
<stop offset="0.1411" stop-color="#A0CFFF"/>
<stop offset="0.2223" stop-color="#BDDEFF"/>
<stop offset="0.3115" stop-color="#D6EAFF"/>
<stop offset="0.4121" stop-color="#E8F3FF"/>
<stop offset="0.5306" stop-color="#F5FAFF"/>
<stop offset="0.6841" stop-color="#FDFEFF"/>
<stop offset="1" stop-color="white"/>
</linearGradient>
<linearGradient id="paint1_linear_201_7" x1="85.2254" y1="118.245" x2="85.2254" y2="3.68871" gradientUnits="userSpaceOnUse">
<stop stop-color="#56A9FF"/>
<stop offset="0.0677" stop-color="#7DBDFF"/>
<stop offset="0.1411" stop-color="#A0CFFF"/>
<stop offset="0.2223" stop-color="#BDDEFF"/>
<stop offset="0.3115" stop-color="#D6EAFF"/>
<stop offset="0.4121" stop-color="#E8F3FF"/>
<stop offset="0.5306" stop-color="#F5FAFF"/>
<stop offset="0.6841" stop-color="#FDFEFF"/>
<stop offset="1" stop-color="white"/>
</linearGradient>
<linearGradient id="paint2_linear_201_7" x1="241.199" y1="154.613" x2="241.199" y2="40.6955" gradientUnits="userSpaceOnUse">
<stop stop-color="#56A9FF"/>
<stop offset="0.0677" stop-color="#7DBDFF"/>
<stop offset="0.1411" stop-color="#A0CFFF"/>
<stop offset="0.2223" stop-color="#BDDEFF"/>
<stop offset="0.3115" stop-color="#D6EAFF"/>
<stop offset="0.4121" stop-color="#E8F3FF"/>
<stop offset="0.5306" stop-color="#F5FAFF"/>
<stop offset="0.6841" stop-color="#FDFEFF"/>
<stop offset="1" stop-color="white"/>
</linearGradient>
<linearGradient id="paint3_linear_201_7" x1="851.853" y1="154.613" x2="851.853" y2="40.6955" gradientUnits="userSpaceOnUse">
<stop stop-color="#56A9FF"/>
<stop offset="0.0677" stop-color="#7DBDFF"/>
<stop offset="0.1411" stop-color="#A0CFFF"/>
<stop offset="0.2223" stop-color="#BDDEFF"/>
<stop offset="0.3115" stop-color="#D6EAFF"/>
<stop offset="0.4121" stop-color="#E8F3FF"/>
<stop offset="0.5306" stop-color="#F5FAFF"/>
<stop offset="0.6841" stop-color="#FDFEFF"/>
<stop offset="1" stop-color="white"/>
</linearGradient>
<linearGradient id="paint4_linear_201_7" x1="416.456" y1="118.264" x2="416.456" y2="3.67009" gradientUnits="userSpaceOnUse">
<stop stop-color="#56A9FF"/>
<stop offset="0.0677" stop-color="#7DBDFF"/>
<stop offset="0.1411" stop-color="#A0CFFF"/>
<stop offset="0.2223" stop-color="#BDDEFF"/>
<stop offset="0.3115" stop-color="#D6EAFF"/>
<stop offset="0.4121" stop-color="#E8F3FF"/>
<stop offset="0.5306" stop-color="#F5FAFF"/>
<stop offset="0.6841" stop-color="#FDFEFF"/>
<stop offset="1" stop-color="white"/>
</linearGradient>
<linearGradient id="paint5_linear_201_7" x1="557.407" y1="154.613" x2="557.407" y2="40.0607" gradientUnits="userSpaceOnUse">
<stop stop-color="#56A9FF"/>
<stop offset="0.0677" stop-color="#7DBDFF"/>
<stop offset="0.1411" stop-color="#A0CFFF"/>
<stop offset="0.2223" stop-color="#BDDEFF"/>
<stop offset="0.3115" stop-color="#D6EAFF"/>
<stop offset="0.4121" stop-color="#E8F3FF"/>
<stop offset="0.5306" stop-color="#F5FAFF"/>
<stop offset="0.6841" stop-color="#FDFEFF"/>
<stop offset="1" stop-color="white"/>
</linearGradient>
<linearGradient id="paint6_linear_201_7" x1="700.27" y1="118.096" x2="700.27" y2="3.8381" gradientUnits="userSpaceOnUse">
<stop stop-color="#56A9FF"/>
<stop offset="0.0677" stop-color="#7DBDFF"/>
<stop offset="0.1411" stop-color="#A0CFFF"/>
<stop offset="0.2223" stop-color="#BDDEFF"/>
<stop offset="0.3115" stop-color="#D6EAFF"/>
<stop offset="0.4121" stop-color="#E8F3FF"/>
<stop offset="0.5306" stop-color="#F5FAFF"/>
<stop offset="0.6841" stop-color="#FDFEFF"/>
<stop offset="1" stop-color="white"/>
</linearGradient>
<linearGradient id="paint7_linear_201_7" x1="1025.9" y1="118.45" x2="1025.9" y2="3.4973" gradientUnits="userSpaceOnUse">
<stop stop-color="#56A9FF"/>
<stop offset="0.0677" stop-color="#7DBDFF"/>
<stop offset="0.1411" stop-color="#A0CFFF"/>
<stop offset="0.2223" stop-color="#BDDEFF"/>
<stop offset="0.3115" stop-color="#D6EAFF"/>
<stop offset="0.4121" stop-color="#E8F3FF"/>
<stop offset="0.5306" stop-color="#F5FAFF"/>
<stop offset="0.6841" stop-color="#FDFEFF"/>
<stop offset="1" stop-color="white"/>
</linearGradient>
<linearGradient id="paint8_linear_201_7" x1="1797.47" y1="119.137" x2="1797.47" y2="3.70571" gradientUnits="userSpaceOnUse">
<stop stop-color="#56A9FF"/>
<stop offset="0.0677" stop-color="#7DBDFF"/>
<stop offset="0.1411" stop-color="#A0CFFF"/>
<stop offset="0.2223" stop-color="#BDDEFF"/>
<stop offset="0.3115" stop-color="#D6EAFF"/>
<stop offset="0.4121" stop-color="#E8F3FF"/>
<stop offset="0.5306" stop-color="#F5FAFF"/>
<stop offset="0.6841" stop-color="#FDFEFF"/>
<stop offset="1" stop-color="white"/>
</linearGradient>
<linearGradient id="paint9_linear_201_7" x1="1897.72" y1="155.278" x2="1897.72" y2="38.7866" gradientUnits="userSpaceOnUse">
<stop stop-color="#56A9FF"/>
<stop offset="0.0677" stop-color="#7DBDFF"/>
<stop offset="0.1411" stop-color="#A0CFFF"/>
<stop offset="0.2223" stop-color="#BDDEFF"/>
<stop offset="0.3115" stop-color="#D6EAFF"/>
<stop offset="0.4121" stop-color="#E8F3FF"/>
<stop offset="0.5306" stop-color="#F5FAFF"/>
<stop offset="0.6841" stop-color="#FDFEFF"/>
<stop offset="1" stop-color="white"/>
</linearGradient>
<linearGradient id="paint10_linear_201_7" x1="1262.1" y1="155.429" x2="1262.1" y2="39.8801" gradientUnits="userSpaceOnUse">
<stop stop-color="#56A9FF"/>
<stop offset="0.0677" stop-color="#7DBDFF"/>
<stop offset="0.1411" stop-color="#A0CFFF"/>
<stop offset="0.2223" stop-color="#BDDEFF"/>
<stop offset="0.3115" stop-color="#D6EAFF"/>
<stop offset="0.4121" stop-color="#E8F3FF"/>
<stop offset="0.5306" stop-color="#F5FAFF"/>
<stop offset="0.6841" stop-color="#FDFEFF"/>
<stop offset="1" stop-color="white"/>
</linearGradient>
<linearGradient id="paint11_linear_201_7" x1="1452.94" y1="119.388" x2="1452.94" y2="3.8381" gradientUnits="userSpaceOnUse">
<stop stop-color="#56A9FF"/>
<stop offset="0.0677" stop-color="#7DBDFF"/>
<stop offset="0.1411" stop-color="#A0CFFF"/>
<stop offset="0.2223" stop-color="#BDDEFF"/>
<stop offset="0.3115" stop-color="#D6EAFF"/>
<stop offset="0.4121" stop-color="#E8F3FF"/>
<stop offset="0.5306" stop-color="#F5FAFF"/>
<stop offset="0.6841" stop-color="#FDFEFF"/>
<stop offset="1" stop-color="white"/>
</linearGradient>
<linearGradient id="paint12_linear_201_7" x1="2042.18" y1="119.388" x2="2042.18" y2="3.8381" gradientUnits="userSpaceOnUse">
<stop stop-color="#56A9FF"/>
<stop offset="0.0677" stop-color="#7DBDFF"/>
<stop offset="0.1411" stop-color="#A0CFFF"/>
<stop offset="0.2223" stop-color="#BDDEFF"/>
<stop offset="0.3115" stop-color="#D6EAFF"/>
<stop offset="0.4121" stop-color="#E8F3FF"/>
<stop offset="0.5306" stop-color="#F5FAFF"/>
<stop offset="0.6841" stop-color="#FDFEFF"/>
<stop offset="1" stop-color="white"/>
</linearGradient>
<linearGradient id="paint13_linear_201_7" x1="1606.47" y1="155.429" x2="1606.47" y2="40.6428" gradientUnits="userSpaceOnUse">
<stop stop-color="#56A9FF"/>
<stop offset="0.0677" stop-color="#7DBDFF"/>
<stop offset="0.1411" stop-color="#A0CFFF"/>
<stop offset="0.2223" stop-color="#BDDEFF"/>
<stop offset="0.3115" stop-color="#D6EAFF"/>
<stop offset="0.4121" stop-color="#E8F3FF"/>
<stop offset="0.5306" stop-color="#F5FAFF"/>
<stop offset="0.6841" stop-color="#FDFEFF"/>
<stop offset="1" stop-color="white"/>
</linearGradient>
<linearGradient id="paint14_linear_201_7" x1="2372.87" y1="119.388" x2="2372.87" y2="4.22019" gradientUnits="userSpaceOnUse">
<stop stop-color="#56A9FF"/>
<stop offset="0.0677" stop-color="#7DBDFF"/>
<stop offset="0.1411" stop-color="#A0CFFF"/>
<stop offset="0.2223" stop-color="#BDDEFF"/>
<stop offset="0.3115" stop-color="#D6EAFF"/>
<stop offset="0.4121" stop-color="#E8F3FF"/>
<stop offset="0.5306" stop-color="#F5FAFF"/>
<stop offset="0.6841" stop-color="#FDFEFF"/>
<stop offset="1" stop-color="white"/>
</linearGradient>
</defs>
</svg>
